<svg width="148" height="164" viewBox="0 0 148 164" fill="none" xmlns="http://www.w3.org/2000/svg">
<rect x="31.3684" y="20" width="108" height="52" rx="10" fill="#588157"/>
<path d="M67.672 52.288L52.6 45.664V44.064L67.672 36.544V39.04L55.608 44.736L67.672 49.792V52.288ZM77.5835 54.624C78.2875 55.648 80.2395 55.296 81.2955 55.296C84.6235 55.296 86.7675 52.448 86.7675 49.216C86.7675 46.72 85.1675 45.984 83.7595 44.32C84.8475 42.752 85.8075 41.024 85.8075 39.072C85.8075 35.296 82.0955 34.24 79.0555 34.24C78.7675 34.24 77.9355 34.24 77.8395 34.272L77.5835 34.496C77.5515 34.528 77.3595 35.84 77.3275 36.32C77.3275 36.384 77.3275 37.856 77.3275 38.496C77.3275 43.744 77.4875 49.568 77.5835 54.624ZM79.1835 53.44C79.3115 51.552 79.5035 48.128 79.4075 45.92C79.6315 45.888 80.6235 45.664 80.7835 45.664C82.7995 45.664 84.6875 46.784 84.6875 48.96C84.6875 51.904 83.1515 53.952 80.2395 53.952C80.0155 53.952 79.4395 53.92 79.4075 53.92L79.1835 53.44ZM79.4075 44.096V35.776C81.7755 35.776 83.5675 36.8 83.5675 39.296C83.5675 40.48 83.4395 41.728 82.6395 42.72C82.2875 43.136 81.1355 44.096 81.0075 44.096H79.4075ZM87.4458 56.128C87.8298 56.288 88.0538 56.384 88.4058 56.384C89.4618 56.384 89.4298 54.112 89.5578 53.536C89.6218 53.216 89.9738 51.712 90.0058 51.424C91.0938 50.848 92.5338 50.944 93.7178 50.944C94.2938 50.944 94.1978 51.456 94.2298 51.904C94.3258 52.512 94.8378 55.296 94.9338 55.872C95.4778 56.064 95.7658 56.128 96.2778 56.128C96.6938 56.128 96.8538 56 96.8538 55.552C95.8938 50.368 95.5738 45.12 94.4858 39.68C94.1978 38.176 94.1978 34.272 91.6698 34.272C90.7738 33.92 89.5898 42.528 88.8538 44.864C88.8538 44.928 88.8538 45.024 88.8538 45.088C88.7898 45.376 88.4378 47.616 88.3738 47.904C88.0538 50.176 87.4138 52.64 87.4138 54.944C87.4138 55.104 87.4458 55.936 87.4458 56.128ZM92.0218 37.184L93.7818 49.312V49.472C92.5338 49.472 91.4138 49.824 90.1978 49.824L92.0218 37.184ZM97.6675 44.96C97.6675 45.984 97.6995 48.704 97.6995 48.832C97.7635 50.912 98.4675 56.128 101.444 56.128C104.868 56.128 106.628 53.024 106.628 49.856C106.628 49.824 106.628 49.792 106.628 49.792C106.5 49.504 106.052 49.312 105.796 49.312C102.948 49.312 104.804 54.528 102.116 54.528C100.484 54.528 100.068 51.616 99.8755 50.176C99.8435 50.016 99.8435 49.92 99.8115 49.792C99.7475 49.28 99.5875 47.488 99.5875 47.2C99.5875 47.104 99.5555 45.44 99.5555 44.832C99.5555 44.736 99.5555 44.672 99.5555 44.576C99.5555 42.208 99.5555 38.528 101.22 36.64C101.891 35.872 102.468 35.008 103.556 35.008C103.62 35.008 103.78 35.008 103.812 35.008C104.836 36.48 104.708 37.184 104.964 38.976C105.028 39.328 105.188 40.16 105.22 40.16H106.628C106.884 40.16 106.884 38.4 106.884 38.176C106.884 35.584 105.604 33.6 102.852 33.6C99.3955 33.6 97.9235 38.528 97.6995 41.088C97.6995 41.696 97.6675 44.384 97.6675 44.96ZM108.015 55.232C108.015 55.808 108.815 55.904 109.295 55.904C109.327 55.904 109.327 55.904 109.359 55.904C109.551 55.904 109.839 55.904 109.871 55.648L110.255 47.232L112.495 44.096C113.871 47.744 115.151 51.808 116.207 55.168C116.303 55.168 116.815 55.2 116.911 55.2C117.455 55.2 118.127 55.296 118.127 54.624C118.127 54.528 118.095 54.272 118.095 54.24L114.095 42.976C114.095 42.944 114.063 42.816 114.063 42.752C114.063 41.376 116.271 39.072 116.911 38.048C117.199 37.568 118.543 35.264 118.799 34.784C118.831 34.752 118.863 34.592 118.863 34.528C118.863 34.048 118.159 34.048 117.775 34.048C117.743 34.048 117.743 34.048 117.711 34.048C116.623 34.048 113.135 40.192 112.239 41.568C111.983 41.984 110.767 43.776 110.479 44.16V34.304C110.479 34.272 110.063 34.112 109.871 34.08C109.871 34.08 109.807 34.08 109.775 34.08C109.743 34.08 109.647 34.08 109.647 34.08C109.519 34.08 108.847 34.24 108.719 34.304C108.015 40.672 108.015 47.36 108.015 53.76C108.015 54.24 108.015 54.752 108.015 55.232Z" fill="white"/>
<rect x="31.3684" y="92" width="108" height="52" rx="10" fill="#3A5A40"/>
<path d="M67.672 124.288L52.6 117.664V116.064L67.672 108.544V111.04L55.608 116.736L67.672 121.792V124.288ZM77.5835 126.624C78.2875 127.648 80.2395 127.296 81.2955 127.296C84.6235 127.296 86.7675 124.448 86.7675 121.216C86.7675 118.72 85.1675 117.984 83.7595 116.32C84.8475 114.752 85.8075 113.024 85.8075 111.072C85.8075 107.296 82.0955 106.24 79.0555 106.24C78.7675 106.24 77.9355 106.24 77.8395 106.272L77.5835 106.496C77.5515 106.528 77.3595 107.84 77.3275 108.32C77.3275 108.384 77.3275 109.856 77.3275 110.496C77.3275 115.744 77.4875 121.568 77.5835 126.624ZM79.1835 125.44C79.3115 123.552 79.5035 120.128 79.4075 117.92C79.6315 117.888 80.6235 117.664 80.7835 117.664C82.7995 117.664 84.6875 118.784 84.6875 120.96C84.6875 123.904 83.1515 125.952 80.2395 125.952C80.0155 125.952 79.4395 125.92 79.4075 125.92L79.1835 125.44ZM79.4075 116.096V107.776C81.7755 107.776 83.5675 108.8 83.5675 111.296C83.5675 112.48 83.4395 113.728 82.6395 114.72C82.2875 115.136 81.1355 116.096 81.0075 116.096H79.4075ZM87.4458 128.128C87.8298 128.288 88.0538 128.384 88.4058 128.384C89.4618 128.384 89.4298 126.112 89.5578 125.536C89.6218 125.216 89.9738 123.712 90.0058 123.424C91.0938 122.848 92.5338 122.944 93.7178 122.944C94.2938 122.944 94.1978 123.456 94.2298 123.904C94.3258 124.512 94.8378 127.296 94.9338 127.872C95.4778 128.064 95.7658 128.128 96.2778 128.128C96.6938 128.128 96.8538 128 96.8538 127.552C95.8938 122.368 95.5738 117.12 94.4858 111.68C94.1978 110.176 94.1978 106.272 91.6698 106.272C90.7738 105.92 89.5898 114.528 88.8538 116.864C88.8538 116.928 88.8538 117.024 88.8538 117.088C88.7898 117.376 88.4378 119.616 88.3738 119.904C88.0538 122.176 87.4138 124.64 87.4138 126.944C87.4138 127.104 87.4458 127.936 87.4458 128.128ZM92.0218 109.184L93.7818 121.312V121.472C92.5338 121.472 91.4138 121.824 90.1978 121.824L92.0218 109.184ZM97.6675 116.96C97.6675 117.984 97.6995 120.704 97.6995 120.832C97.7635 122.912 98.4675 128.128 101.444 128.128C104.868 128.128 106.628 125.024 106.628 121.856C106.628 121.824 106.628 121.792 106.628 121.792C106.5 121.504 106.052 121.312 105.796 121.312C102.948 121.312 104.804 126.528 102.116 126.528C100.484 126.528 100.068 123.616 99.8755 122.176C99.8435 122.016 99.8435 121.92 99.8115 121.792C99.7475 121.28 99.5875 119.488 99.5875 119.2C99.5875 119.104 99.5555 117.44 99.5555 116.832C99.5555 116.736 99.5555 116.672 99.5555 116.576C99.5555 114.208 99.5555 110.528 101.22 108.64C101.891 107.872 102.468 107.008 103.556 107.008C103.62 107.008 103.78 107.008 103.812 107.008C104.836 108.48 104.708 109.184 104.964 110.976C105.028 111.328 105.188 112.16 105.22 112.16H106.628C106.884 112.16 106.884 110.4 106.884 110.176C106.884 107.584 105.604 105.6 102.852 105.6C99.3955 105.6 97.9235 110.528 97.6995 113.088C97.6995 113.696 97.6675 116.384 97.6675 116.96ZM108.015 127.232C108.015 127.808 108.815 127.904 109.295 127.904C109.327 127.904 109.327 127.904 109.359 127.904C109.551 127.904 109.839 127.904 109.871 127.648L110.255 119.232L112.495 116.096C113.871 119.744 115.151 123.808 116.207 127.168C116.303 127.168 116.815 127.2 116.911 127.2C117.455 127.2 118.127 127.296 118.127 126.624C118.127 126.528 118.095 126.272 118.095 126.24L114.095 114.976C114.095 114.944 114.063 114.816 114.063 114.752C114.063 113.376 116.271 111.072 116.911 110.048C117.199 109.568 118.543 107.264 118.799 106.784C118.831 106.752 118.863 106.592 118.863 106.528C118.863 106.048 118.159 106.048 117.775 106.048C117.743 106.048 117.743 106.048 117.711 106.048C116.623 106.048 113.135 112.192 112.239 113.568C111.983 113.984 110.767 115.776 110.479 116.16V106.304C110.479 106.272 110.063 106.112 109.871 106.08C109.871 106.08 109.807 106.08 109.775 106.08C109.743 106.08 109.647 106.08 109.647 106.08C109.519 106.08 108.847 106.24 108.719 106.304C108.015 112.672 108.015 119.36 108.015 125.76C108.015 126.24 108.015 126.752 108.015 127.232Z" fill="white"/>
<rect x="0.5" y="0.5" width="147" height="163" rx="4.5" stroke="#9747FF" stroke-dasharray="10 5"/>
</svg>
