<svg width="315" height="174" viewBox="0 0 315 174" fill="none" xmlns="http://www.w3.org/2000/svg">
<rect x="20" y="20" width="275" height="57" rx="10" fill="#588157"/>
<path d="M109.008 59.452C109.8 60.604 111.996 60.208 113.184 60.208C116.928 60.208 119.34 57.004 119.34 53.368C119.34 50.56 117.54 49.732 115.956 47.86C117.18 46.096 118.26 44.152 118.26 41.956C118.26 37.708 114.084 36.52 110.664 36.52C110.34 36.52 109.404 36.52 109.296 36.556L109.008 36.808C108.972 36.844 108.756 38.32 108.72 38.86C108.72 38.932 108.72 40.588 108.72 41.308C108.72 47.212 108.9 53.764 109.008 59.452ZM110.808 58.12C110.952 55.996 111.168 52.144 111.06 49.66C111.312 49.624 112.428 49.372 112.608 49.372C114.876 49.372 117 50.632 117 53.08C117 56.392 115.272 58.696 111.996 58.696C111.744 58.696 111.096 58.66 111.06 58.66L110.808 58.12ZM111.06 47.608V38.248C113.724 38.248 115.74 39.4 115.74 42.208C115.74 43.54 115.596 44.944 114.696 46.06C114.3 46.528 113.004 47.608 112.86 47.608H111.06ZM120.463 60.352L121.507 60.604H121.651C122.227 60.604 122.299 59.488 122.299 59.272L122.839 50.56C130.003 51.028 127.771 60.352 129.319 60.352C129.751 60.352 130.543 60.316 130.759 59.812C130.759 59.596 130.795 58.552 130.795 58.372C130.795 54.988 129.931 50.74 126.259 49.516C126.475 49.12 126.979 49.156 127.339 48.976C129.787 47.752 131.299 45.088 131.299 42.388C131.299 38.248 128.527 35.764 124.423 35.764H124.171C122.767 35.764 120.787 35.728 120.715 37.636C120.679 38.608 120.463 46.168 120.463 47.14C120.463 47.428 120.427 52.072 120.427 53.728C120.427 54.736 120.463 59.344 120.463 60.352ZM124.675 37.132C127.483 37.312 128.959 39.544 128.959 42.136C128.959 45.844 126.511 48.148 122.839 48.724V37.384C122.839 37.276 124.135 37.06 124.675 37.132ZM132.38 53.656C132.38 54.952 132.416 58.336 132.416 58.48C132.416 59.056 132.596 60.532 132.668 60.604L133.208 61.144H139.796C139.868 61.144 140.372 60.568 140.588 60.352C140.588 60.352 140.624 60.244 140.624 60.208C140.624 60.172 140.588 60.064 140.588 60.064C140.552 59.992 140.372 59.848 140.336 59.812C138.68 59.164 136.052 59.632 134.792 59.632V50.56L135.044 49.264C135.044 49.228 137.636 49.048 138.752 48.976C139.184 48.94 140.084 49.156 140.084 48.328C140.084 48.292 140.048 48.184 140.048 48.184C139.976 48.004 139.58 47.536 139.544 47.536H135.044V38.716L135.296 38.428C136.016 38.392 139.148 38.248 139.796 38.176C139.868 38.176 141.38 38.14 141.38 37.528C141.38 36.916 140.912 36.592 140.336 36.592C139.976 36.592 138.392 36.556 138.068 36.556C137.204 36.556 133.532 36.16 132.92 37.384C132.452 42.784 132.38 48.22 132.38 53.656ZM142.322 61.144C142.754 61.324 143.006 61.432 143.402 61.432C144.59 61.432 144.554 58.876 144.698 58.228C144.77 57.868 145.166 56.176 145.202 55.852C146.426 55.204 148.046 55.312 149.378 55.312C150.026 55.312 149.918 55.888 149.954 56.392C150.062 57.076 150.638 60.208 150.746 60.856C151.358 61.072 151.682 61.144 152.258 61.144C152.726 61.144 152.906 61 152.906 60.496C151.826 54.664 151.466 48.76 150.242 42.64C149.918 40.948 149.918 36.556 147.074 36.556C146.066 36.16 144.734 45.844 143.906 48.472C143.906 48.544 143.906 48.652 143.906 48.724C143.834 49.048 143.438 51.568 143.366 51.892C143.006 54.448 142.286 57.22 142.286 59.812C142.286 59.992 142.322 60.928 142.322 61.144ZM147.47 39.832L149.45 53.476V53.656C148.046 53.656 146.786 54.052 145.418 54.052L147.47 39.832ZM154.001 60.136C154.001 60.784 154.901 60.892 155.441 60.892C155.477 60.892 155.477 60.892 155.513 60.892C155.729 60.892 156.053 60.892 156.089 60.604L156.521 51.136L159.041 47.608C160.589 51.712 162.029 56.284 163.217 60.064C163.325 60.064 163.901 60.1 164.009 60.1C164.621 60.1 165.377 60.208 165.377 59.452C165.377 59.344 165.341 59.056 165.341 59.02L160.841 46.348C160.841 46.312 160.805 46.168 160.805 46.096C160.805 44.548 163.289 41.956 164.009 40.804C164.333 40.264 165.845 37.672 166.133 37.132C166.169 37.096 166.205 36.916 166.205 36.844C166.205 36.304 165.413 36.304 164.981 36.304C164.945 36.304 164.945 36.304 164.909 36.304C163.685 36.304 159.761 43.216 158.753 44.764C158.465 45.232 157.097 47.248 156.773 47.68V36.592C156.773 36.556 156.305 36.376 156.089 36.34C156.089 36.34 156.017 36.34 155.981 36.34C155.945 36.34 155.837 36.34 155.837 36.34C155.693 36.34 154.937 36.52 154.793 36.592C154.001 43.756 154.001 51.28 154.001 58.48C154.001 59.02 154.001 59.596 154.001 60.136ZM167.29 59.812C167.434 60.388 167.974 60.388 168.442 60.388C168.478 60.388 168.55 60.388 168.586 60.388C168.73 60.388 169.27 60.352 169.378 60.352C169.846 56.572 169.954 52.288 170.17 48.724C170.638 48.724 172.87 48.544 173.338 48.472C173.59 48.436 174.166 48.148 174.166 47.788C174.166 47.752 174.13 47.68 174.13 47.68C173.626 46.672 170.674 46.816 170.17 46.888C170.098 46.708 169.918 45.988 169.918 45.808C169.918 45.412 170.134 42.244 170.17 41.848C170.17 41.524 170.134 39.04 170.17 38.716C170.17 38.572 170.386 37.996 170.458 37.924C171.178 37.852 174.454 37.672 175.174 37.636C175.678 37.6 176.506 37.96 176.506 37.132C176.506 37.06 176.326 36.7 176.254 36.592C176.182 36.52 176.002 36.34 175.966 36.34H168.874C168.838 36.34 168.658 36.52 168.586 36.592C168.478 36.772 168.082 37.312 168.082 37.384C168.046 37.456 168.082 37.852 168.082 37.924C167.326 44.296 167.362 50.164 167.29 56.896C167.29 56.968 167.29 58.012 167.29 58.372C167.29 58.552 167.29 59.596 167.29 59.812ZM174.068 61.144C174.5 61.324 174.752 61.432 175.148 61.432C176.336 61.432 176.3 58.876 176.444 58.228C176.516 57.868 176.912 56.176 176.948 55.852C178.172 55.204 179.792 55.312 181.124 55.312C181.772 55.312 181.664 55.888 181.7 56.392C181.808 57.076 182.384 60.208 182.492 60.856C183.104 61.072 183.428 61.144 184.004 61.144C184.472 61.144 184.652 61 184.652 60.496C183.572 54.664 183.212 48.76 181.988 42.64C181.664 40.948 181.664 36.556 178.82 36.556C177.812 36.16 176.48 45.844 175.652 48.472C175.652 48.544 175.652 48.652 175.652 48.724C175.58 49.048 175.184 51.568 175.112 51.892C174.752 54.448 174.032 57.22 174.032 59.812C174.032 59.992 174.068 60.928 174.068 61.144ZM179.216 39.832L181.196 53.476V53.656C179.792 53.656 178.532 54.052 177.164 54.052L179.216 39.832ZM185.832 56.86C185.832 59.2 186.66 60.892 189.144 60.892C192.312 60.892 194.328 59.236 194.328 55.924C194.328 50.632 187.164 46.744 187.164 42.244C187.164 40.732 188.46 37.888 190.332 37.888C192.96 37.888 191.988 41.632 193.068 41.632C194.04 41.632 194.328 41.2 194.328 40.3C194.328 37.528 193.068 36.52 190.332 36.52C187.2 36.52 185.04 39.472 185.04 42.46C185.04 47.752 191.952 51.028 191.952 56.14C191.952 57.832 191.124 59.56 189.144 59.56C187.668 59.56 188.712 55.816 186.804 55.816C185.868 55.816 185.832 55.96 185.832 56.86ZM199.695 60.352C200.127 61 201.063 61 201.711 61C201.711 59.884 201.855 53.548 201.891 52.432C201.963 48.76 202.323 38.896 202.395 38.824L202.683 38.572C202.791 38.572 202.863 38.608 202.971 38.608C204.519 38.716 206.967 38.572 206.931 37.528V37.492C206.931 37.312 206.931 36.736 206.643 36.664C204.375 36.376 202.719 36.376 200.595 36.376H199.911C199.407 36.376 197.103 36.412 196.599 36.412C196.563 36.412 196.491 36.448 196.455 36.448C195.879 36.592 195.231 36.736 195.231 37.384C195.231 37.708 195.267 38.176 195.807 38.176H199.227C199.983 38.176 200.019 40.192 200.019 40.66C200.019 44.692 199.479 49.156 199.479 53.152C199.479 55.492 199.407 57.94 199.695 60.352Z" fill="white"/>
<rect x="22" y="99" width="271" height="53" rx="8" fill="#3A5A40" stroke="#DDA14E" stroke-width="4"/>
<path d="M109.008 136.452C109.8 137.604 111.996 137.208 113.184 137.208C116.928 137.208 119.34 134.004 119.34 130.368C119.34 127.56 117.54 126.732 115.956 124.86C117.18 123.096 118.26 121.152 118.26 118.956C118.26 114.708 114.084 113.52 110.664 113.52C110.34 113.52 109.404 113.52 109.296 113.556L109.008 113.808C108.972 113.844 108.756 115.32 108.72 115.86C108.72 115.932 108.72 117.588 108.72 118.308C108.72 124.212 108.9 130.764 109.008 136.452ZM110.808 135.12C110.952 132.996 111.168 129.144 111.06 126.66C111.312 126.624 112.428 126.372 112.608 126.372C114.876 126.372 117 127.632 117 130.08C117 133.392 115.272 135.696 111.996 135.696C111.744 135.696 111.096 135.66 111.06 135.66L110.808 135.12ZM111.06 124.608V115.248C113.724 115.248 115.74 116.4 115.74 119.208C115.74 120.54 115.596 121.944 114.696 123.06C114.3 123.528 113.004 124.608 112.86 124.608H111.06ZM120.463 137.352L121.507 137.604H121.651C122.227 137.604 122.299 136.488 122.299 136.272L122.839 127.56C130.003 128.028 127.771 137.352 129.319 137.352C129.751 137.352 130.543 137.316 130.759 136.812C130.759 136.596 130.795 135.552 130.795 135.372C130.795 131.988 129.931 127.74 126.259 126.516C126.475 126.12 126.979 126.156 127.339 125.976C129.787 124.752 131.299 122.088 131.299 119.388C131.299 115.248 128.527 112.764 124.423 112.764H124.171C122.767 112.764 120.787 112.728 120.715 114.636C120.679 115.608 120.463 123.168 120.463 124.14C120.463 124.428 120.427 129.072 120.427 130.728C120.427 131.736 120.463 136.344 120.463 137.352ZM124.675 114.132C127.483 114.312 128.959 116.544 128.959 119.136C128.959 122.844 126.511 125.148 122.839 125.724V114.384C122.839 114.276 124.135 114.06 124.675 114.132ZM132.38 130.656C132.38 131.952 132.416 135.336 132.416 135.48C132.416 136.056 132.596 137.532 132.668 137.604L133.208 138.144H139.796C139.868 138.144 140.372 137.568 140.588 137.352C140.588 137.352 140.624 137.244 140.624 137.208C140.624 137.172 140.588 137.064 140.588 137.064C140.552 136.992 140.372 136.848 140.336 136.812C138.68 136.164 136.052 136.632 134.792 136.632V127.56L135.044 126.264C135.044 126.228 137.636 126.048 138.752 125.976C139.184 125.94 140.084 126.156 140.084 125.328C140.084 125.292 140.048 125.184 140.048 125.184C139.976 125.004 139.58 124.536 139.544 124.536H135.044V115.716L135.296 115.428C136.016 115.392 139.148 115.248 139.796 115.176C139.868 115.176 141.38 115.14 141.38 114.528C141.38 113.916 140.912 113.592 140.336 113.592C139.976 113.592 138.392 113.556 138.068 113.556C137.204 113.556 133.532 113.16 132.92 114.384C132.452 119.784 132.38 125.22 132.38 130.656ZM142.322 138.144C142.754 138.324 143.006 138.432 143.402 138.432C144.59 138.432 144.554 135.876 144.698 135.228C144.77 134.868 145.166 133.176 145.202 132.852C146.426 132.204 148.046 132.312 149.378 132.312C150.026 132.312 149.918 132.888 149.954 133.392C150.062 134.076 150.638 137.208 150.746 137.856C151.358 138.072 151.682 138.144 152.258 138.144C152.726 138.144 152.906 138 152.906 137.496C151.826 131.664 151.466 125.76 150.242 119.64C149.918 117.948 149.918 113.556 147.074 113.556C146.066 113.16 144.734 122.844 143.906 125.472C143.906 125.544 143.906 125.652 143.906 125.724C143.834 126.048 143.438 128.568 143.366 128.892C143.006 131.448 142.286 134.22 142.286 136.812C142.286 136.992 142.322 137.928 142.322 138.144ZM147.47 116.832L149.45 130.476V130.656C148.046 130.656 146.786 131.052 145.418 131.052L147.47 116.832ZM154.001 137.136C154.001 137.784 154.901 137.892 155.441 137.892C155.477 137.892 155.477 137.892 155.513 137.892C155.729 137.892 156.053 137.892 156.089 137.604L156.521 128.136L159.041 124.608C160.589 128.712 162.029 133.284 163.217 137.064C163.325 137.064 163.901 137.1 164.009 137.1C164.621 137.1 165.377 137.208 165.377 136.452C165.377 136.344 165.341 136.056 165.341 136.02L160.841 123.348C160.841 123.312 160.805 123.168 160.805 123.096C160.805 121.548 163.289 118.956 164.009 117.804C164.333 117.264 165.845 114.672 166.133 114.132C166.169 114.096 166.205 113.916 166.205 113.844C166.205 113.304 165.413 113.304 164.981 113.304C164.945 113.304 164.945 113.304 164.909 113.304C163.685 113.304 159.761 120.216 158.753 121.764C158.465 122.232 157.097 124.248 156.773 124.68V113.592C156.773 113.556 156.305 113.376 156.089 113.34C156.089 113.34 156.017 113.34 155.981 113.34C155.945 113.34 155.837 113.34 155.837 113.34C155.693 113.34 154.937 113.52 154.793 113.592C154.001 120.756 154.001 128.28 154.001 135.48C154.001 136.02 154.001 136.596 154.001 137.136ZM167.29 136.812C167.434 137.388 167.974 137.388 168.442 137.388C168.478 137.388 168.55 137.388 168.586 137.388C168.73 137.388 169.27 137.352 169.378 137.352C169.846 133.572 169.954 129.288 170.17 125.724C170.638 125.724 172.87 125.544 173.338 125.472C173.59 125.436 174.166 125.148 174.166 124.788C174.166 124.752 174.13 124.68 174.13 124.68C173.626 123.672 170.674 123.816 170.17 123.888C170.098 123.708 169.918 122.988 169.918 122.808C169.918 122.412 170.134 119.244 170.17 118.848C170.17 118.524 170.134 116.04 170.17 115.716C170.17 115.572 170.386 114.996 170.458 114.924C171.178 114.852 174.454 114.672 175.174 114.636C175.678 114.6 176.506 114.96 176.506 114.132C176.506 114.06 176.326 113.7 176.254 113.592C176.182 113.52 176.002 113.34 175.966 113.34H168.874C168.838 113.34 168.658 113.52 168.586 113.592C168.478 113.772 168.082 114.312 168.082 114.384C168.046 114.456 168.082 114.852 168.082 114.924C167.326 121.296 167.362 127.164 167.29 133.896C167.29 133.968 167.29 135.012 167.29 135.372C167.29 135.552 167.29 136.596 167.29 136.812ZM174.068 138.144C174.5 138.324 174.752 138.432 175.148 138.432C176.336 138.432 176.3 135.876 176.444 135.228C176.516 134.868 176.912 133.176 176.948 132.852C178.172 132.204 179.792 132.312 181.124 132.312C181.772 132.312 181.664 132.888 181.7 133.392C181.808 134.076 182.384 137.208 182.492 137.856C183.104 138.072 183.428 138.144 184.004 138.144C184.472 138.144 184.652 138 184.652 137.496C183.572 131.664 183.212 125.76 181.988 119.64C181.664 117.948 181.664 113.556 178.82 113.556C177.812 113.16 176.48 122.844 175.652 125.472C175.652 125.544 175.652 125.652 175.652 125.724C175.58 126.048 175.184 128.568 175.112 128.892C174.752 131.448 174.032 134.22 174.032 136.812C174.032 136.992 174.068 137.928 174.068 138.144ZM179.216 116.832L181.196 130.476V130.656C179.792 130.656 178.532 131.052 177.164 131.052L179.216 116.832ZM185.832 133.86C185.832 136.2 186.66 137.892 189.144 137.892C192.312 137.892 194.328 136.236 194.328 132.924C194.328 127.632 187.164 123.744 187.164 119.244C187.164 117.732 188.46 114.888 190.332 114.888C192.96 114.888 191.988 118.632 193.068 118.632C194.04 118.632 194.328 118.2 194.328 117.3C194.328 114.528 193.068 113.52 190.332 113.52C187.2 113.52 185.04 116.472 185.04 119.46C185.04 124.752 191.952 128.028 191.952 133.14C191.952 134.832 191.124 136.56 189.144 136.56C187.668 136.56 188.712 132.816 186.804 132.816C185.868 132.816 185.832 132.96 185.832 133.86ZM199.695 137.352C200.127 138 201.063 138 201.711 138C201.711 136.884 201.855 130.548 201.891 129.432C201.963 125.76 202.323 115.896 202.395 115.824L202.683 115.572C202.791 115.572 202.863 115.608 202.971 115.608C204.519 115.716 206.967 115.572 206.931 114.528V114.492C206.931 114.312 206.931 113.736 206.643 113.664C204.375 113.376 202.719 113.376 200.595 113.376H199.911C199.407 113.376 197.103 113.412 196.599 113.412C196.563 113.412 196.491 113.448 196.455 113.448C195.879 113.592 195.231 113.736 195.231 114.384C195.231 114.708 195.267 115.176 195.807 115.176H199.227C199.983 115.176 200.019 117.192 200.019 117.66C200.019 121.692 199.479 126.156 199.479 130.152C199.479 132.492 199.407 134.94 199.695 137.352Z" fill="#DDA14E"/>
<rect x="0.5" y="0.5" width="314" height="173" rx="4.5" stroke="#9747FF" stroke-dasharray="10 5"/>
</svg>
