<svg width="315" height="174" viewBox="0 0 315 174" fill="none" xmlns="http://www.w3.org/2000/svg">
<rect x="20" y="20" width="275" height="57" rx="10" fill="#588157"/>
<path d="M105.572 36.52C105.212 36.52 104.204 36.556 104.096 36.556C103.628 36.592 102.368 36.736 102.332 36.808L102.08 37.6C102.08 37.636 101.864 52.9 101.756 59.164C101.756 59.344 101.72 60.244 101.72 60.424H103.52L103.808 60.208C103.844 60.136 103.988 57.472 104.024 56.32C104.024 56.212 103.844 54.412 103.844 54.268C103.88 53.728 104.096 51.244 104.096 50.704C108.596 49.66 111.332 47.284 111.332 42.46C111.332 38.356 109.496 36.52 105.572 36.52ZM105.824 37.816C108.02 37.816 109.028 40.732 109.028 42.46C109.028 45.736 107.408 48.364 104.096 49.156V38.068C104.096 37.852 105.644 37.816 105.824 37.816ZM112.408 53.656C112.408 54.952 112.444 58.336 112.444 58.48C112.444 59.056 112.624 60.532 112.696 60.604L113.236 61.144H119.824C119.896 61.144 120.4 60.568 120.616 60.352C120.616 60.352 120.652 60.244 120.652 60.208C120.652 60.172 120.616 60.064 120.616 60.064C120.58 59.992 120.4 59.848 120.364 59.812C118.708 59.164 116.08 59.632 114.82 59.632V50.56L115.072 49.264C115.072 49.228 117.664 49.048 118.78 48.976C119.212 48.94 120.112 49.156 120.112 48.328C120.112 48.292 120.076 48.184 120.076 48.184C120.004 48.004 119.608 47.536 119.572 47.536H115.072V38.716L115.324 38.428C116.044 38.392 119.176 38.248 119.824 38.176C119.896 38.176 121.408 38.14 121.408 37.528C121.408 36.916 120.939 36.592 120.364 36.592C120.004 36.592 118.42 36.556 118.096 36.556C117.232 36.556 113.56 36.16 112.948 37.384C112.48 42.784 112.408 48.22 112.408 53.656ZM122.406 56.86C122.406 59.2 123.234 60.892 125.718 60.892C128.886 60.892 130.902 59.236 130.902 55.924C130.902 50.632 123.738 46.744 123.738 42.244C123.738 40.732 125.034 37.888 126.906 37.888C129.534 37.888 128.562 41.632 129.642 41.632C130.614 41.632 130.902 41.2 130.902 40.3C130.902 37.528 129.642 36.52 126.906 36.52C123.774 36.52 121.614 39.472 121.614 42.46C121.614 47.752 128.526 51.028 128.526 56.14C128.526 57.832 127.698 59.56 125.718 59.56C124.242 59.56 125.286 55.816 123.378 55.816C122.442 55.816 122.406 55.96 122.406 56.86ZM131.985 48.58C131.985 49.732 132.021 52.792 132.021 52.936C132.093 55.276 132.885 61.144 136.233 61.144C140.085 61.144 142.065 57.652 142.065 54.088C142.065 54.052 142.065 54.016 142.065 54.016C141.921 53.692 141.417 53.476 141.129 53.476C137.925 53.476 140.013 59.344 136.989 59.344C135.153 59.344 134.685 56.068 134.469 54.448C134.433 54.268 134.433 54.16 134.397 54.016C134.325 53.44 134.145 51.424 134.145 51.1C134.145 50.992 134.109 49.12 134.109 48.436C134.109 48.328 134.109 48.256 134.109 48.148C134.109 45.484 134.109 41.344 135.981 39.22C136.737 38.356 137.385 37.384 138.609 37.384C138.681 37.384 138.861 37.384 138.897 37.384C140.049 39.04 139.905 39.832 140.193 41.848C140.265 42.244 140.445 43.18 140.481 43.18H142.065C142.353 43.18 142.353 41.2 142.353 40.948C142.353 38.032 140.913 35.8 137.817 35.8C133.929 35.8 132.273 41.344 132.021 44.224C132.021 44.908 131.985 47.932 131.985 48.58ZM143.302 61.144C143.734 61.324 143.986 61.432 144.382 61.432C145.57 61.432 145.534 58.876 145.678 58.228C145.75 57.868 146.146 56.176 146.182 55.852C147.406 55.204 149.026 55.312 150.358 55.312C151.006 55.312 150.898 55.888 150.934 56.392C151.042 57.076 151.618 60.208 151.726 60.856C152.338 61.072 152.662 61.144 153.238 61.144C153.706 61.144 153.886 61 153.886 60.496C152.806 54.664 152.446 48.76 151.222 42.64C150.898 40.948 150.898 36.556 148.054 36.556C147.046 36.16 145.714 45.844 144.886 48.472C144.886 48.544 144.886 48.652 144.886 48.724C144.814 49.048 144.418 51.568 144.346 51.892C143.986 54.448 143.266 57.22 143.266 59.812C143.266 59.992 143.302 60.928 143.302 61.144ZM148.45 39.832L150.43 53.476V53.656C149.026 53.656 147.766 54.052 146.398 54.052L148.45 39.832ZM156.871 60.352C157.303 61 158.239 61 158.887 61C158.887 59.884 159.031 53.548 159.067 52.432C159.139 48.76 159.499 38.896 159.571 38.824L159.859 38.572C159.967 38.572 160.039 38.608 160.147 38.608C161.695 38.716 164.143 38.572 164.107 37.528V37.492C164.107 37.312 164.107 36.736 163.819 36.664C161.551 36.376 159.895 36.376 157.771 36.376H157.087C156.583 36.376 154.279 36.412 153.775 36.412C153.739 36.412 153.667 36.448 153.631 36.448C153.055 36.592 152.407 36.736 152.407 37.384C152.407 37.708 152.443 38.176 152.983 38.176H156.403C157.159 38.176 157.195 40.192 157.195 40.66C157.195 44.692 156.655 49.156 156.655 53.152C156.655 55.492 156.583 57.94 156.871 60.352ZM161.794 61.144C162.226 61.324 162.478 61.432 162.874 61.432C164.062 61.432 164.026 58.876 164.17 58.228C164.242 57.868 164.638 56.176 164.674 55.852C165.898 55.204 167.518 55.312 168.85 55.312C169.498 55.312 169.39 55.888 169.426 56.392C169.534 57.076 170.11 60.208 170.218 60.856C170.83 61.072 171.154 61.144 171.73 61.144C172.198 61.144 172.378 61 172.378 60.496C171.298 54.664 170.938 48.76 169.714 42.64C169.39 40.948 169.39 36.556 166.546 36.556C165.538 36.16 164.206 45.844 163.378 48.472C163.378 48.544 163.378 48.652 163.378 48.724C163.306 49.048 162.91 51.568 162.838 51.892C162.478 54.448 161.758 57.22 161.758 59.812C161.758 59.992 161.794 60.928 161.794 61.144ZM166.942 39.832L168.922 53.476V53.656C167.518 53.656 166.258 54.052 164.89 54.052L166.942 39.832ZM173.51 60.352L174.554 60.604H174.698C175.274 60.604 175.346 59.488 175.346 59.272L175.886 50.56C183.05 51.028 180.818 60.352 182.366 60.352C182.798 60.352 183.59 60.316 183.806 59.812C183.806 59.596 183.842 58.552 183.842 58.372C183.842 54.988 182.978 50.74 179.306 49.516C179.522 49.12 180.026 49.156 180.386 48.976C182.834 47.752 184.346 45.088 184.346 42.388C184.346 38.248 181.574 35.764 177.47 35.764H177.218C175.814 35.764 173.834 35.728 173.762 37.636C173.726 38.608 173.51 46.168 173.51 47.14C173.51 47.428 173.474 52.072 173.474 53.728C173.474 54.736 173.51 59.344 173.51 60.352ZM177.722 37.132C180.53 37.312 182.006 39.544 182.006 42.136C182.006 45.844 179.558 48.148 175.886 48.724V37.384C175.886 37.276 177.182 37.06 177.722 37.132ZM185.427 59.092C185.427 60.208 186.075 60.388 187.191 60.388C187.191 60.028 187.227 58.336 187.263 57.976C187.263 57.868 187.479 57.508 187.551 57.436C188.019 51.316 188.343 45.124 188.343 38.968C188.343 38.716 188.343 37.6 188.343 37.384C188.127 36.988 187.515 36.844 187.155 36.844C185.751 36.844 186.255 39.4 186.219 40.012C186.183 40.336 185.967 42.856 185.967 43.18C185.967 43.504 185.967 46.024 185.967 46.348C185.859 50.524 185.427 54.88 185.427 59.092ZM189.462 61.144C189.894 61.324 190.146 61.432 190.542 61.432C191.73 61.432 191.694 58.876 191.838 58.228C191.91 57.868 192.306 56.176 192.342 55.852C193.566 55.204 195.186 55.312 196.518 55.312C197.166 55.312 197.058 55.888 197.094 56.392C197.202 57.076 197.778 60.208 197.886 60.856C198.498 61.072 198.822 61.144 199.398 61.144C199.866 61.144 200.046 61 200.046 60.496C198.966 54.664 198.606 48.76 197.382 42.64C197.058 40.948 197.058 36.556 194.214 36.556C193.206 36.16 191.874 45.844 191.046 48.472C191.046 48.544 191.046 48.652 191.046 48.724C190.974 49.048 190.578 51.568 190.506 51.892C190.146 54.448 189.426 57.22 189.426 59.812C189.426 59.992 189.462 60.928 189.462 61.144ZM194.61 39.832L196.59 53.476V53.656C195.186 53.656 193.926 54.052 192.558 54.052L194.61 39.832ZM201.142 60.064C201.322 60.64 201.862 60.64 202.33 60.64C202.402 60.64 202.87 60.568 202.978 60.568C203.95 55.384 203.266 45.952 203.59 40.84C205.39 44.152 209.206 59.632 211.222 59.848C211.294 59.848 212.266 59.992 212.338 59.56C212.95 52.828 212.626 45.988 212.842 37.132C212.59 36.592 211.762 36.556 211.258 36.556C211.222 36.556 210.826 36.592 210.754 36.592C210.466 38.752 210.61 51.856 210.646 55.24L205.21 39.508C204.886 39.04 204.598 36.592 203.878 36.592H202.042C202.006 36.592 201.826 37.888 201.79 38.428C201.142 44.872 201.142 52.18 201.142 58.588V60.064Z" fill="white"/>
<rect x="22" y="99" width="271" height="53" rx="8" fill="#3A5A40" stroke="#DDA14E" stroke-width="4"/>
<path d="M105.572 113.52C105.212 113.52 104.204 113.556 104.096 113.556C103.628 113.592 102.368 113.736 102.332 113.808L102.08 114.6C102.08 114.636 101.864 129.9 101.756 136.164C101.756 136.344 101.72 137.244 101.72 137.424H103.52L103.808 137.208C103.844 137.136 103.988 134.472 104.024 133.32C104.024 133.212 103.844 131.412 103.844 131.268C103.88 130.728 104.096 128.244 104.096 127.704C108.596 126.66 111.332 124.284 111.332 119.46C111.332 115.356 109.496 113.52 105.572 113.52ZM105.824 114.816C108.02 114.816 109.028 117.732 109.028 119.46C109.028 122.736 107.408 125.364 104.096 126.156V115.068C104.096 114.852 105.644 114.816 105.824 114.816ZM112.408 130.656C112.408 131.952 112.444 135.336 112.444 135.48C112.444 136.056 112.624 137.532 112.696 137.604L113.236 138.144H119.824C119.896 138.144 120.4 137.568 120.616 137.352C120.616 137.352 120.652 137.244 120.652 137.208C120.652 137.172 120.616 137.064 120.616 137.064C120.58 136.992 120.4 136.848 120.364 136.812C118.708 136.164 116.08 136.632 114.82 136.632V127.56L115.072 126.264C115.072 126.228 117.664 126.048 118.78 125.976C119.212 125.94 120.112 126.156 120.112 125.328C120.112 125.292 120.076 125.184 120.076 125.184C120.004 125.004 119.608 124.536 119.572 124.536H115.072V115.716L115.324 115.428C116.044 115.392 119.176 115.248 119.824 115.176C119.896 115.176 121.408 115.14 121.408 114.528C121.408 113.916 120.939 113.592 120.364 113.592C120.004 113.592 118.42 113.556 118.096 113.556C117.232 113.556 113.56 113.16 112.948 114.384C112.48 119.784 112.408 125.22 112.408 130.656ZM122.406 133.86C122.406 136.2 123.234 137.892 125.718 137.892C128.886 137.892 130.902 136.236 130.902 132.924C130.902 127.632 123.738 123.744 123.738 119.244C123.738 117.732 125.034 114.888 126.906 114.888C129.534 114.888 128.562 118.632 129.642 118.632C130.614 118.632 130.902 118.2 130.902 117.3C130.902 114.528 129.642 113.52 126.906 113.52C123.774 113.52 121.614 116.472 121.614 119.46C121.614 124.752 128.526 128.028 128.526 133.14C128.526 134.832 127.698 136.56 125.718 136.56C124.242 136.56 125.286 132.816 123.378 132.816C122.442 132.816 122.406 132.96 122.406 133.86ZM131.985 125.58C131.985 126.732 132.021 129.792 132.021 129.936C132.093 132.276 132.885 138.144 136.233 138.144C140.085 138.144 142.065 134.652 142.065 131.088C142.065 131.052 142.065 131.016 142.065 131.016C141.921 130.692 141.417 130.476 141.129 130.476C137.925 130.476 140.013 136.344 136.989 136.344C135.153 136.344 134.685 133.068 134.469 131.448C134.433 131.268 134.433 131.16 134.397 131.016C134.325 130.44 134.145 128.424 134.145 128.1C134.145 127.992 134.109 126.12 134.109 125.436C134.109 125.328 134.109 125.256 134.109 125.148C134.109 122.484 134.109 118.344 135.981 116.22C136.737 115.356 137.385 114.384 138.609 114.384C138.681 114.384 138.861 114.384 138.897 114.384C140.049 116.04 139.905 116.832 140.193 118.848C140.265 119.244 140.445 120.18 140.481 120.18H142.065C142.353 120.18 142.353 118.2 142.353 117.948C142.353 115.032 140.913 112.8 137.817 112.8C133.929 112.8 132.273 118.344 132.021 121.224C132.021 121.908 131.985 124.932 131.985 125.58ZM143.302 138.144C143.734 138.324 143.986 138.432 144.382 138.432C145.57 138.432 145.534 135.876 145.678 135.228C145.75 134.868 146.146 133.176 146.182 132.852C147.406 132.204 149.026 132.312 150.358 132.312C151.006 132.312 150.898 132.888 150.934 133.392C151.042 134.076 151.618 137.208 151.726 137.856C152.338 138.072 152.662 138.144 153.238 138.144C153.706 138.144 153.886 138 153.886 137.496C152.806 131.664 152.446 125.76 151.222 119.64C150.898 117.948 150.898 113.556 148.054 113.556C147.046 113.16 145.714 122.844 144.886 125.472C144.886 125.544 144.886 125.652 144.886 125.724C144.814 126.048 144.418 128.568 144.346 128.892C143.986 131.448 143.266 134.22 143.266 136.812C143.266 136.992 143.302 137.928 143.302 138.144ZM148.45 116.832L150.43 130.476V130.656C149.026 130.656 147.766 131.052 146.398 131.052L148.45 116.832ZM156.871 137.352C157.303 138 158.239 138 158.887 138C158.887 136.884 159.031 130.548 159.067 129.432C159.139 125.76 159.499 115.896 159.571 115.824L159.859 115.572C159.967 115.572 160.039 115.608 160.147 115.608C161.695 115.716 164.143 115.572 164.107 114.528V114.492C164.107 114.312 164.107 113.736 163.819 113.664C161.551 113.376 159.895 113.376 157.771 113.376H157.087C156.583 113.376 154.279 113.412 153.775 113.412C153.739 113.412 153.667 113.448 153.631 113.448C153.055 113.592 152.407 113.736 152.407 114.384C152.407 114.708 152.443 115.176 152.983 115.176H156.403C157.159 115.176 157.195 117.192 157.195 117.66C157.195 121.692 156.655 126.156 156.655 130.152C156.655 132.492 156.583 134.94 156.871 137.352ZM161.794 138.144C162.226 138.324 162.478 138.432 162.874 138.432C164.062 138.432 164.026 135.876 164.17 135.228C164.242 134.868 164.638 133.176 164.674 132.852C165.898 132.204 167.518 132.312 168.85 132.312C169.498 132.312 169.39 132.888 169.426 133.392C169.534 134.076 170.11 137.208 170.218 137.856C170.83 138.072 171.154 138.144 171.73 138.144C172.198 138.144 172.378 138 172.378 137.496C171.298 131.664 170.938 125.76 169.714 119.64C169.39 117.948 169.39 113.556 166.546 113.556C165.538 113.16 164.206 122.844 163.378 125.472C163.378 125.544 163.378 125.652 163.378 125.724C163.306 126.048 162.91 128.568 162.838 128.892C162.478 131.448 161.758 134.22 161.758 136.812C161.758 136.992 161.794 137.928 161.794 138.144ZM166.942 116.832L168.922 130.476V130.656C167.518 130.656 166.258 131.052 164.89 131.052L166.942 116.832ZM173.51 137.352L174.554 137.604H174.698C175.274 137.604 175.346 136.488 175.346 136.272L175.886 127.56C183.05 128.028 180.818 137.352 182.366 137.352C182.798 137.352 183.59 137.316 183.806 136.812C183.806 136.596 183.842 135.552 183.842 135.372C183.842 131.988 182.978 127.74 179.306 126.516C179.522 126.12 180.026 126.156 180.386 125.976C182.834 124.752 184.346 122.088 184.346 119.388C184.346 115.248 181.574 112.764 177.47 112.764H177.218C175.814 112.764 173.834 112.728 173.762 114.636C173.726 115.608 173.51 123.168 173.51 124.14C173.51 124.428 173.474 129.072 173.474 130.728C173.474 131.736 173.51 136.344 173.51 137.352ZM177.722 114.132C180.53 114.312 182.006 116.544 182.006 119.136C182.006 122.844 179.558 125.148 175.886 125.724V114.384C175.886 114.276 177.182 114.06 177.722 114.132ZM185.427 136.092C185.427 137.208 186.075 137.388 187.191 137.388C187.191 137.028 187.227 135.336 187.263 134.976C187.263 134.868 187.479 134.508 187.551 134.436C188.019 128.316 188.343 122.124 188.343 115.968C188.343 115.716 188.343 114.6 188.343 114.384C188.127 113.988 187.515 113.844 187.155 113.844C185.751 113.844 186.255 116.4 186.219 117.012C186.183 117.336 185.967 119.856 185.967 120.18C185.967 120.504 185.967 123.024 185.967 123.348C185.859 127.524 185.427 131.88 185.427 136.092ZM189.462 138.144C189.894 138.324 190.146 138.432 190.542 138.432C191.73 138.432 191.694 135.876 191.838 135.228C191.91 134.868 192.306 133.176 192.342 132.852C193.566 132.204 195.186 132.312 196.518 132.312C197.166 132.312 197.058 132.888 197.094 133.392C197.202 134.076 197.778 137.208 197.886 137.856C198.498 138.072 198.822 138.144 199.398 138.144C199.866 138.144 200.046 138 200.046 137.496C198.966 131.664 198.606 125.76 197.382 119.64C197.058 117.948 197.058 113.556 194.214 113.556C193.206 113.16 191.874 122.844 191.046 125.472C191.046 125.544 191.046 125.652 191.046 125.724C190.974 126.048 190.578 128.568 190.506 128.892C190.146 131.448 189.426 134.22 189.426 136.812C189.426 136.992 189.462 137.928 189.462 138.144ZM194.61 116.832L196.59 130.476V130.656C195.186 130.656 193.926 131.052 192.558 131.052L194.61 116.832ZM201.142 137.064C201.322 137.64 201.862 137.64 202.33 137.64C202.402 137.64 202.87 137.568 202.978 137.568C203.95 132.384 203.266 122.952 203.59 117.84C205.39 121.152 209.206 136.632 211.222 136.848C211.294 136.848 212.266 136.992 212.338 136.56C212.95 129.828 212.626 122.988 212.842 114.132C212.59 113.592 211.762 113.556 211.258 113.556C211.222 113.556 210.826 113.592 210.754 113.592C210.466 115.752 210.61 128.856 210.646 132.24L205.21 116.508C204.886 116.04 204.598 113.592 203.878 113.592H202.042C202.006 113.592 201.826 114.888 201.79 115.428C201.142 121.872 201.142 129.18 201.142 135.588V137.064Z" fill="#DDA14E"/>
<rect x="0.5" y="0.5" width="314" height="173" rx="4.5" stroke="#9747FF" stroke-dasharray="10 5"/>
</svg>
