<svg width="315" height="174" viewBox="0 0 315 174" fill="none" xmlns="http://www.w3.org/2000/svg">
<rect x="20" y="20" width="275" height="57" rx="10" fill="#588157"/>
<path d="M71.076 61.432L71.184 61.684H71.256C71.652 61.684 71.832 61.684 71.832 60.64V59.992C73.56 59.416 74.856 57.904 74.856 55.852C74.856 53.224 73.488 50.848 72.192 48.58C72.048 48.364 71.94 48.148 71.832 47.932V46.852C71.832 46.636 71.796 42.316 71.796 41.092C71.796 40.696 71.796 39.616 71.76 38.572C72.12 38.284 72.516 38.032 72.768 38.068C74.1 38.32 74.1 41.308 74.1 42.028C75.684 42.028 76.116 41.2 76.116 39.688C76.116 37.744 75.072 36.52 73.128 36.52C72.624 36.52 72.192 36.592 71.76 36.7V36.268C71.688 36.088 71.4 35.692 71.292 35.692C71.292 35.692 71.22 35.872 71.22 35.98C71.148 36.268 71.112 36.592 71.076 36.916C68.88 37.816 67.584 40.12 67.584 42.568C67.584 45.844 69.564 48.184 71.04 50.74V58.516C70.86 58.624 70.68 58.66 70.464 58.66C68.988 58.66 69.924 55.312 68.412 55.312C67.98 55.312 66.72 55.42 66.612 56.068C66.288 58.156 68.484 60.244 70.212 60.244C70.5 60.244 70.788 60.244 71.076 60.172V61.432ZM71.004 39.364V46.42C70.068 44.332 69.024 40.984 71.004 39.364ZM72.516 55.564C72.516 56.176 72.264 57.112 71.832 57.796V52.36C72.228 53.332 72.516 54.412 72.516 55.564ZM77.8403 59.56C77.8403 61.036 80.3963 60.568 81.0443 60.568C81.6563 60.568 83.1323 60.532 83.2043 60.532C83.6363 60.496 85.2563 60.568 85.2563 59.668C85.2563 59.164 85.1483 58.876 84.5363 58.876H80.3243C81.0803 52.756 86.1203 48.796 86.1203 43.252C86.1203 40.372 84.8963 37.168 82.0163 37.168C80.2523 37.168 77.3723 38.428 77.3723 40.912C77.3723 41.668 77.5163 41.668 77.9123 41.668H77.9843C79.7123 41.668 80.0363 38.896 81.6563 38.896C83.3483 38.896 83.6723 42.316 83.6723 43.72C83.6723 45.772 82.8443 47.356 81.8363 49.048C80.0723 52.036 77.8403 55.744 77.8403 59.56ZM96.7477 45.232C98.4997 45.232 100.024 45.532 101.32 46.132C102.616 46.732 103.612 47.596 104.308 48.724C105.028 49.828 105.388 51.184 105.388 52.792C105.388 54.568 105.004 56.104 104.236 57.4C103.468 58.672 102.364 59.656 100.924 60.352C99.5077 61.024 97.7917 61.36 95.7757 61.36C94.4557 61.36 93.2077 61.24 92.0317 61C90.8797 60.76 89.9077 60.412 89.1157 59.956V56.968C89.9797 57.496 91.0237 57.916 92.2477 58.228C93.4957 58.516 94.6837 58.66 95.8117 58.66C97.0837 58.66 98.1877 58.468 99.1237 58.084C100.084 57.676 100.828 57.064 101.356 56.248C101.884 55.408 102.148 54.364 102.148 53.116C102.148 51.436 101.632 50.152 100.6 49.264C99.5677 48.352 97.9357 47.896 95.7037 47.896C95.0317 47.896 94.2637 47.956 93.3997 48.076C92.5357 48.196 91.8397 48.316 91.3117 48.436L89.7277 47.428L90.6997 35.296H103.588V38.176H93.3997L92.7877 45.628C93.1957 45.556 93.7477 45.472 94.4437 45.376C95.1397 45.28 95.9077 45.232 96.7477 45.232ZM108.169 48.904C108.169 49.408 108.853 49.624 109.177 49.732C109.609 49.732 111.517 49.624 111.949 49.588C112.237 49.552 114.505 49.66 114.829 49.624C115.189 49.588 116.917 49.3 116.917 48.544C116.953 47.356 114.901 47.572 114.397 47.572C114.325 47.572 114.253 47.572 114.109 47.572C112.777 47.5 108.205 47.32 108.169 48.904ZM120.471 61.432L120.579 61.684H120.651C121.047 61.684 121.227 61.684 121.227 60.64V59.992C122.955 59.416 124.251 57.904 124.251 55.852C124.251 53.224 122.883 50.848 121.587 48.58C121.443 48.364 121.335 48.148 121.227 47.932V46.852C121.227 46.636 121.191 42.316 121.191 41.092C121.191 40.696 121.191 39.616 121.155 38.572C121.515 38.284 121.911 38.032 122.163 38.068C123.495 38.32 123.495 41.308 123.495 42.028C125.079 42.028 125.511 41.2 125.511 39.688C125.511 37.744 124.467 36.52 122.523 36.52C122.019 36.52 121.587 36.592 121.155 36.7V36.268C121.083 36.088 120.795 35.692 120.687 35.692C120.687 35.692 120.615 35.872 120.615 35.98C120.543 36.268 120.507 36.592 120.471 36.916C118.275 37.816 116.979 40.12 116.979 42.568C116.979 45.844 118.959 48.184 120.435 50.74V58.516C120.255 58.624 120.075 58.66 119.859 58.66C118.383 58.66 119.319 55.312 117.807 55.312C117.375 55.312 116.115 55.42 116.007 56.068C115.683 58.156 117.879 60.244 119.607 60.244C119.895 60.244 120.183 60.244 120.471 60.172V61.432ZM120.399 39.364V46.42C119.463 44.332 118.419 40.984 120.399 39.364ZM121.911 55.564C121.911 56.176 121.659 57.112 121.227 57.796V52.36C121.623 53.332 121.911 54.412 121.911 55.564ZM145.919 55.168H142.175V61H139.115V55.168H126.803V52.468L138.899 35.152H142.175V52.324H145.919V55.168ZM139.115 44.224C139.115 43.6 139.115 43.036 139.115 42.532C139.139 42.004 139.163 41.512 139.187 41.056C139.211 40.6 139.223 40.168 139.223 39.76C139.247 39.328 139.271 38.92 139.295 38.536H139.151C138.959 38.992 138.719 39.484 138.431 40.012C138.143 40.54 137.867 40.984 137.603 41.344L129.899 52.324H139.115V44.224ZM147.404 51.964C147.548 55.024 148.124 60.82 151.976 60.604C157.664 60.244 157.448 50.992 157.376 46.132C157.34 45.844 157.376 45.556 157.34 45.268L157.304 44.476C157.196 42.28 156.656 38.896 154.892 37.456L152.12 37.168H151.904C150.104 37.24 148.34 41.164 147.548 46.384L147.368 51.388L147.404 51.964ZM149.888 51.928C149.672 48.112 149.42 42.496 152.228 39.148C152.3 39.076 152.444 38.86 152.444 38.86H152.588C154.424 38.752 154.82 44.548 154.892 45.592C154.892 45.88 154.928 46.636 154.928 46.672C154.928 47.032 154.748 50.2 154.712 51.172C154.64 52.432 153.848 58.768 152.192 58.84C151.364 58.876 150.824 57.364 150.608 56.644C150.464 56.14 150.032 54.52 150.032 54.448C150.032 54.376 149.924 52.612 149.888 51.928ZM167.341 60.136C167.377 61.18 168.097 61.216 169.141 61.144H169.249C169.285 61.108 169.465 60.928 169.465 60.892C169.789 58.264 169.429 54.232 169.429 51.856C173.677 51.46 176.737 45.736 176.233 41.776C176.089 39.148 175.369 36.772 172.417 36.376C172.381 36.376 172.309 36.34 172.273 36.34C171.121 36.196 169.285 35.98 167.917 36.088H167.845C167.053 36.124 167.197 36.772 167.161 37.204L167.341 60.136ZM169.321 38.104C169.321 38.032 169.537 37.636 169.573 37.6H169.681C172.237 37.42 173.641 39.04 173.785 41.452C173.965 43.9 172.669 49.66 169.501 49.876C169.285 46.06 169.393 41.92 169.321 38.104ZM177.392 53.656C177.392 54.952 177.428 58.336 177.428 58.48C177.428 59.056 177.608 60.532 177.68 60.604L178.22 61.144H184.808C184.88 61.144 185.384 60.568 185.6 60.352C185.6 60.352 185.636 60.244 185.636 60.208C185.636 60.172 185.6 60.064 185.6 60.064C185.564 59.992 185.384 59.848 185.348 59.812C183.692 59.164 181.064 59.632 179.804 59.632V50.56L180.056 49.264C180.056 49.228 182.648 49.048 183.764 48.976C184.196 48.94 185.096 49.156 185.096 48.328C185.096 48.292 185.06 48.184 185.06 48.184C184.988 48.004 184.592 47.536 184.556 47.536H180.056V38.716L180.308 38.428C181.028 38.392 184.16 38.248 184.808 38.176C184.88 38.176 186.392 38.14 186.392 37.528C186.392 36.916 185.924 36.592 185.348 36.592C184.988 36.592 183.404 36.556 183.08 36.556C182.216 36.556 178.544 36.16 177.932 37.384C177.464 42.784 177.392 48.22 177.392 53.656ZM187.694 60.352L188.738 60.604H188.882C189.458 60.604 189.53 59.488 189.53 59.272L190.07 50.56C197.234 51.028 195.002 60.352 196.55 60.352C196.982 60.352 197.774 60.316 197.99 59.812C197.99 59.596 198.026 58.552 198.026 58.372C198.026 54.988 197.162 50.74 193.49 49.516C193.706 49.12 194.21 49.156 194.57 48.976C197.018 47.752 198.53 45.088 198.53 42.388C198.53 38.248 195.758 35.764 191.654 35.764H191.402C189.998 35.764 188.018 35.728 187.946 37.636C187.91 38.608 187.694 46.168 187.694 47.14C187.694 47.428 187.658 52.072 187.658 53.728C187.658 54.736 187.694 59.344 187.694 60.352ZM191.906 37.132C194.714 37.312 196.189 39.544 196.189 42.136C196.189 45.844 193.742 48.148 190.07 48.724V37.384C190.07 37.276 191.366 37.06 191.906 37.132ZM219.428 57.688C219.716 58.804 219.536 59.164 219.968 60.064C220.076 60.064 220.652 60.1 220.76 60.1C221.192 60.1 221.768 60.172 222.092 59.812C222.236 59.092 222.776 55.564 222.884 54.808V54.268L225.26 39.76C225.116 38.896 225.548 37.96 225.548 37.132C225.548 36.952 225.512 36.232 225.512 36.052C225.188 35.764 225.008 35.764 224.612 35.764C224.252 35.764 223.172 35.872 223.136 36.052C221.372 48.256 221.048 55.096 220.724 55.168L218.384 42.136C218.204 41.128 218.024 40.516 216.872 40.516C216.008 40.516 215.936 40.408 215.756 41.056C214.748 45.088 213.596 52.468 212.516 56.464L211.004 44.512C210.932 44.404 210.788 43.828 210.752 43.72V43.18C210.572 42.244 209.852 37.996 209.672 37.132C209.456 36.376 208.916 36.016 208.16 36.016C207.476 36.016 207.584 36.772 207.584 37.384V37.636L209.42 49.768V50.056C209.744 52.36 210.176 55.78 210.644 58.084L210.896 59.38C211.148 60.1 211.616 60.46 212.479 60.46C213.416 60.46 213.704 58.696 213.812 58.336L216.98 44.512L219.428 57.688ZM226.611 53.656C226.611 54.952 226.647 58.336 226.647 58.48C226.647 59.056 226.827 60.532 226.899 60.604L227.439 61.144H234.027C234.099 61.144 234.603 60.568 234.819 60.352C234.819 60.352 234.855 60.244 234.855 60.208C234.855 60.172 234.819 60.064 234.819 60.064C234.783 59.992 234.603 59.848 234.567 59.812C232.911 59.164 230.283 59.632 229.023 59.632V50.56L229.275 49.264C229.275 49.228 231.867 49.048 232.983 48.976C233.415 48.94 234.315 49.156 234.315 48.328C234.315 48.292 234.279 48.184 234.279 48.184C234.207 48.004 233.811 47.536 233.775 47.536H229.275V38.716L229.527 38.428C230.247 38.392 233.379 38.248 234.027 38.176C234.099 38.176 235.611 38.14 235.611 37.528C235.611 36.916 235.143 36.592 234.567 36.592C234.207 36.592 232.623 36.556 232.299 36.556C231.435 36.556 227.763 36.16 227.151 37.384C226.683 42.784 226.611 48.22 226.611 53.656ZM236.876 53.656C236.876 54.952 236.912 58.336 236.912 58.48C236.912 59.056 237.092 60.532 237.164 60.604L237.704 61.144H244.292C244.364 61.144 244.868 60.568 245.084 60.352C245.084 60.352 245.12 60.244 245.12 60.208C245.12 60.172 245.084 60.064 245.084 60.064C245.048 59.992 244.868 59.848 244.832 59.812C243.176 59.164 240.548 59.632 239.288 59.632V50.56L239.54 49.264C239.54 49.228 242.132 49.048 243.248 48.976C243.68 48.94 244.58 49.156 244.58 48.328C244.58 48.292 244.544 48.184 244.544 48.184C244.472 48.004 244.076 47.536 244.04 47.536H239.54V38.716L239.792 38.428C240.512 38.392 243.644 38.248 244.292 38.176C244.364 38.176 245.876 38.14 245.876 37.528C245.876 36.916 245.408 36.592 244.832 36.592C244.472 36.592 242.888 36.556 242.564 36.556C241.7 36.556 238.028 36.16 237.416 37.384C236.948 42.784 236.876 48.22 236.876 53.656ZM246.298 60.136C246.298 60.784 247.198 60.892 247.738 60.892C247.774 60.892 247.774 60.892 247.81 60.892C248.026 60.892 248.35 60.892 248.386 60.604L248.818 51.136L251.338 47.608C252.886 51.712 254.326 56.284 255.514 60.064C255.622 60.064 256.198 60.1 256.306 60.1C256.918 60.1 257.674 60.208 257.674 59.452C257.674 59.344 257.638 59.056 257.638 59.02L253.138 46.348C253.138 46.312 253.102 46.168 253.102 46.096C253.102 44.548 255.586 41.956 256.306 40.804C256.63 40.264 258.142 37.672 258.43 37.132C258.466 37.096 258.502 36.916 258.502 36.844C258.502 36.304 257.71 36.304 257.278 36.304C257.242 36.304 257.242 36.304 257.206 36.304C255.982 36.304 252.058 43.216 251.05 44.764C250.762 45.232 249.394 47.248 249.07 47.68V36.592C249.07 36.556 248.602 36.376 248.386 36.34C248.386 36.34 248.314 36.34 248.278 36.34C248.242 36.34 248.134 36.34 248.134 36.34C247.99 36.34 247.234 36.52 247.09 36.592C246.298 43.756 246.298 51.28 246.298 58.48C246.298 59.02 246.298 59.596 246.298 60.136Z" fill="white"/>
<rect x="22" y="99" width="271" height="53" rx="8" fill="#3A5A40" stroke="#DDA14E" stroke-width="4"/>
<path d="M71.076 138.432L71.184 138.684H71.256C71.652 138.684 71.832 138.684 71.832 137.64V136.992C73.56 136.416 74.856 134.904 74.856 132.852C74.856 130.224 73.488 127.848 72.192 125.58C72.048 125.364 71.94 125.148 71.832 124.932V123.852C71.832 123.636 71.796 119.316 71.796 118.092C71.796 117.696 71.796 116.616 71.76 115.572C72.12 115.284 72.516 115.032 72.768 115.068C74.1 115.32 74.1 118.308 74.1 119.028C75.684 119.028 76.116 118.2 76.116 116.688C76.116 114.744 75.072 113.52 73.128 113.52C72.624 113.52 72.192 113.592 71.76 113.7V113.268C71.688 113.088 71.4 112.692 71.292 112.692C71.292 112.692 71.22 112.872 71.22 112.98C71.148 113.268 71.112 113.592 71.076 113.916C68.88 114.816 67.584 117.12 67.584 119.568C67.584 122.844 69.564 125.184 71.04 127.74V135.516C70.86 135.624 70.68 135.66 70.464 135.66C68.988 135.66 69.924 132.312 68.412 132.312C67.98 132.312 66.72 132.42 66.612 133.068C66.288 135.156 68.484 137.244 70.212 137.244C70.5 137.244 70.788 137.244 71.076 137.172V138.432ZM71.004 116.364V123.42C70.068 121.332 69.024 117.984 71.004 116.364ZM72.516 132.564C72.516 133.176 72.264 134.112 71.832 134.796V129.36C72.228 130.332 72.516 131.412 72.516 132.564ZM77.8403 136.56C77.8403 138.036 80.3963 137.568 81.0443 137.568C81.6563 137.568 83.1323 137.532 83.2043 137.532C83.6363 137.496 85.2563 137.568 85.2563 136.668C85.2563 136.164 85.1483 135.876 84.5363 135.876H80.3243C81.0803 129.756 86.1203 125.796 86.1203 120.252C86.1203 117.372 84.8963 114.168 82.0163 114.168C80.2523 114.168 77.3723 115.428 77.3723 117.912C77.3723 118.668 77.5163 118.668 77.9123 118.668H77.9843C79.7123 118.668 80.0363 115.896 81.6563 115.896C83.3483 115.896 83.6723 119.316 83.6723 120.72C83.6723 122.772 82.8443 124.356 81.8363 126.048C80.0723 129.036 77.8403 132.744 77.8403 136.56ZM96.7477 122.232C98.4997 122.232 100.024 122.532 101.32 123.132C102.616 123.732 103.612 124.596 104.308 125.724C105.028 126.828 105.388 128.184 105.388 129.792C105.388 131.568 105.004 133.104 104.236 134.4C103.468 135.672 102.364 136.656 100.924 137.352C99.5077 138.024 97.7917 138.36 95.7757 138.36C94.4557 138.36 93.2077 138.24 92.0317 138C90.8797 137.76 89.9077 137.412 89.1157 136.956V133.968C89.9797 134.496 91.0237 134.916 92.2477 135.228C93.4957 135.516 94.6837 135.66 95.8117 135.66C97.0837 135.66 98.1877 135.468 99.1237 135.084C100.084 134.676 100.828 134.064 101.356 133.248C101.884 132.408 102.148 131.364 102.148 130.116C102.148 128.436 101.632 127.152 100.6 126.264C99.5677 125.352 97.9357 124.896 95.7037 124.896C95.0317 124.896 94.2637 124.956 93.3997 125.076C92.5357 125.196 91.8397 125.316 91.3117 125.436L89.7277 124.428L90.6997 112.296H103.588V115.176H93.3997L92.7877 122.628C93.1957 122.556 93.7477 122.472 94.4437 122.376C95.1397 122.28 95.9077 122.232 96.7477 122.232ZM108.169 125.904C108.169 126.408 108.853 126.624 109.177 126.732C109.609 126.732 111.517 126.624 111.949 126.588C112.237 126.552 114.505 126.66 114.829 126.624C115.189 126.588 116.917 126.3 116.917 125.544C116.953 124.356 114.901 124.572 114.397 124.572C114.325 124.572 114.253 124.572 114.109 124.572C112.777 124.5 108.205 124.32 108.169 125.904ZM120.471 138.432L120.579 138.684H120.651C121.047 138.684 121.227 138.684 121.227 137.64V136.992C122.955 136.416 124.251 134.904 124.251 132.852C124.251 130.224 122.883 127.848 121.587 125.58C121.443 125.364 121.335 125.148 121.227 124.932V123.852C121.227 123.636 121.191 119.316 121.191 118.092C121.191 117.696 121.191 116.616 121.155 115.572C121.515 115.284 121.911 115.032 122.163 115.068C123.495 115.32 123.495 118.308 123.495 119.028C125.079 119.028 125.511 118.2 125.511 116.688C125.511 114.744 124.467 113.52 122.523 113.52C122.019 113.52 121.587 113.592 121.155 113.7V113.268C121.083 113.088 120.795 112.692 120.687 112.692C120.687 112.692 120.615 112.872 120.615 112.98C120.543 113.268 120.507 113.592 120.471 113.916C118.275 114.816 116.979 117.12 116.979 119.568C116.979 122.844 118.959 125.184 120.435 127.74V135.516C120.255 135.624 120.075 135.66 119.859 135.66C118.383 135.66 119.319 132.312 117.807 132.312C117.375 132.312 116.115 132.42 116.007 133.068C115.683 135.156 117.879 137.244 119.607 137.244C119.895 137.244 120.183 137.244 120.471 137.172V138.432ZM120.399 116.364V123.42C119.463 121.332 118.419 117.984 120.399 116.364ZM121.911 132.564C121.911 133.176 121.659 134.112 121.227 134.796V129.36C121.623 130.332 121.911 131.412 121.911 132.564ZM145.919 132.168H142.175V138H139.115V132.168H126.803V129.468L138.899 112.152H142.175V129.324H145.919V132.168ZM139.115 121.224C139.115 120.6 139.115 120.036 139.115 119.532C139.139 119.004 139.163 118.512 139.187 118.056C139.211 117.6 139.223 117.168 139.223 116.76C139.247 116.328 139.271 115.92 139.295 115.536H139.151C138.959 115.992 138.719 116.484 138.431 117.012C138.143 117.54 137.867 117.984 137.603 118.344L129.899 129.324H139.115V121.224ZM147.404 128.964C147.548 132.024 148.124 137.82 151.976 137.604C157.664 137.244 157.448 127.992 157.376 123.132C157.34 122.844 157.376 122.556 157.34 122.268L157.304 121.476C157.196 119.28 156.656 115.896 154.892 114.456L152.12 114.168H151.904C150.104 114.24 148.34 118.164 147.548 123.384L147.368 128.388L147.404 128.964ZM149.888 128.928C149.672 125.112 149.42 119.496 152.228 116.148C152.3 116.076 152.444 115.86 152.444 115.86H152.588C154.424 115.752 154.82 121.548 154.892 122.592C154.892 122.88 154.928 123.636 154.928 123.672C154.928 124.032 154.748 127.2 154.712 128.172C154.64 129.432 153.848 135.768 152.192 135.84C151.364 135.876 150.824 134.364 150.608 133.644C150.464 133.14 150.032 131.52 150.032 131.448C150.032 131.376 149.924 129.612 149.888 128.928ZM167.341 137.136C167.377 138.18 168.097 138.216 169.141 138.144H169.249C169.285 138.108 169.465 137.928 169.465 137.892C169.789 135.264 169.429 131.232 169.429 128.856C173.677 128.46 176.737 122.736 176.233 118.776C176.089 116.148 175.369 113.772 172.417 113.376C172.381 113.376 172.309 113.34 172.273 113.34C171.121 113.196 169.285 112.98 167.917 113.088H167.845C167.053 113.124 167.197 113.772 167.161 114.204L167.341 137.136ZM169.321 115.104C169.321 115.032 169.537 114.636 169.573 114.6H169.681C172.237 114.42 173.641 116.04 173.785 118.452C173.965 120.9 172.669 126.66 169.501 126.876C169.285 123.06 169.393 118.92 169.321 115.104ZM177.392 130.656C177.392 131.952 177.428 135.336 177.428 135.48C177.428 136.056 177.608 137.532 177.68 137.604L178.22 138.144H184.808C184.88 138.144 185.384 137.568 185.6 137.352C185.6 137.352 185.636 137.244 185.636 137.208C185.636 137.172 185.6 137.064 185.6 137.064C185.564 136.992 185.384 136.848 185.348 136.812C183.692 136.164 181.064 136.632 179.804 136.632V127.56L180.056 126.264C180.056 126.228 182.648 126.048 183.764 125.976C184.196 125.94 185.096 126.156 185.096 125.328C185.096 125.292 185.06 125.184 185.06 125.184C184.988 125.004 184.592 124.536 184.556 124.536H180.056V115.716L180.308 115.428C181.028 115.392 184.16 115.248 184.808 115.176C184.88 115.176 186.392 115.14 186.392 114.528C186.392 113.916 185.924 113.592 185.348 113.592C184.988 113.592 183.404 113.556 183.08 113.556C182.216 113.556 178.544 113.16 177.932 114.384C177.464 119.784 177.392 125.22 177.392 130.656ZM187.694 137.352L188.738 137.604H188.882C189.458 137.604 189.53 136.488 189.53 136.272L190.07 127.56C197.234 128.028 195.002 137.352 196.55 137.352C196.982 137.352 197.774 137.316 197.99 136.812C197.99 136.596 198.026 135.552 198.026 135.372C198.026 131.988 197.162 127.74 193.49 126.516C193.706 126.12 194.21 126.156 194.57 125.976C197.018 124.752 198.53 122.088 198.53 119.388C198.53 115.248 195.758 112.764 191.654 112.764H191.402C189.998 112.764 188.018 112.728 187.946 114.636C187.91 115.608 187.694 123.168 187.694 124.14C187.694 124.428 187.658 129.072 187.658 130.728C187.658 131.736 187.694 136.344 187.694 137.352ZM191.906 114.132C194.714 114.312 196.189 116.544 196.189 119.136C196.189 122.844 193.742 125.148 190.07 125.724V114.384C190.07 114.276 191.366 114.06 191.906 114.132ZM219.428 134.688C219.716 135.804 219.536 136.164 219.968 137.064C220.076 137.064 220.652 137.1 220.76 137.1C221.192 137.1 221.768 137.172 222.092 136.812C222.236 136.092 222.776 132.564 222.884 131.808V131.268L225.26 116.76C225.116 115.896 225.548 114.96 225.548 114.132C225.548 113.952 225.512 113.232 225.512 113.052C225.188 112.764 225.008 112.764 224.612 112.764C224.252 112.764 223.172 112.872 223.136 113.052C221.372 125.256 221.048 132.096 220.724 132.168L218.384 119.136C218.204 118.128 218.024 117.516 216.872 117.516C216.008 117.516 215.936 117.408 215.756 118.056C214.748 122.088 213.596 129.468 212.516 133.464L211.004 121.512C210.932 121.404 210.788 120.828 210.752 120.72V120.18C210.572 119.244 209.852 114.996 209.672 114.132C209.456 113.376 208.916 113.016 208.16 113.016C207.476 113.016 207.584 113.772 207.584 114.384V114.636L209.42 126.768V127.056C209.744 129.36 210.176 132.78 210.644 135.084L210.896 136.38C211.148 137.1 211.616 137.46 212.479 137.46C213.416 137.46 213.704 135.696 213.812 135.336L216.98 121.512L219.428 134.688ZM226.611 130.656C226.611 131.952 226.647 135.336 226.647 135.48C226.647 136.056 226.827 137.532 226.899 137.604L227.439 138.144H234.027C234.099 138.144 234.603 137.568 234.819 137.352C234.819 137.352 234.855 137.244 234.855 137.208C234.855 137.172 234.819 137.064 234.819 137.064C234.783 136.992 234.603 136.848 234.567 136.812C232.911 136.164 230.283 136.632 229.023 136.632V127.56L229.275 126.264C229.275 126.228 231.867 126.048 232.983 125.976C233.415 125.94 234.315 126.156 234.315 125.328C234.315 125.292 234.279 125.184 234.279 125.184C234.207 125.004 233.811 124.536 233.775 124.536H229.275V115.716L229.527 115.428C230.247 115.392 233.379 115.248 234.027 115.176C234.099 115.176 235.611 115.14 235.611 114.528C235.611 113.916 235.143 113.592 234.567 113.592C234.207 113.592 232.623 113.556 232.299 113.556C231.435 113.556 227.763 113.16 227.151 114.384C226.683 119.784 226.611 125.22 226.611 130.656ZM236.876 130.656C236.876 131.952 236.912 135.336 236.912 135.48C236.912 136.056 237.092 137.532 237.164 137.604L237.704 138.144H244.292C244.364 138.144 244.868 137.568 245.084 137.352C245.084 137.352 245.12 137.244 245.12 137.208C245.12 137.172 245.084 137.064 245.084 137.064C245.048 136.992 244.868 136.848 244.832 136.812C243.176 136.164 240.548 136.632 239.288 136.632V127.56L239.54 126.264C239.54 126.228 242.132 126.048 243.248 125.976C243.68 125.94 244.58 126.156 244.58 125.328C244.58 125.292 244.544 125.184 244.544 125.184C244.472 125.004 244.076 124.536 244.04 124.536H239.54V115.716L239.792 115.428C240.512 115.392 243.644 115.248 244.292 115.176C244.364 115.176 245.876 115.14 245.876 114.528C245.876 113.916 245.408 113.592 244.832 113.592C244.472 113.592 242.888 113.556 242.564 113.556C241.7 113.556 238.028 113.16 237.416 114.384C236.948 119.784 236.876 125.22 236.876 130.656ZM246.298 137.136C246.298 137.784 247.198 137.892 247.738 137.892C247.774 137.892 247.774 137.892 247.81 137.892C248.026 137.892 248.35 137.892 248.386 137.604L248.818 128.136L251.338 124.608C252.886 128.712 254.326 133.284 255.514 137.064C255.622 137.064 256.198 137.1 256.306 137.1C256.918 137.1 257.674 137.208 257.674 136.452C257.674 136.344 257.638 136.056 257.638 136.02L253.138 123.348C253.138 123.312 253.102 123.168 253.102 123.096C253.102 121.548 255.586 118.956 256.306 117.804C256.63 117.264 258.142 114.672 258.43 114.132C258.466 114.096 258.502 113.916 258.502 113.844C258.502 113.304 257.71 113.304 257.278 113.304C257.242 113.304 257.242 113.304 257.206 113.304C255.982 113.304 252.058 120.216 251.05 121.764C250.762 122.232 249.394 124.248 249.07 124.68V113.592C249.07 113.556 248.602 113.376 248.386 113.34C248.386 113.34 248.314 113.34 248.278 113.34C248.242 113.34 248.134 113.34 248.134 113.34C247.99 113.34 247.234 113.52 247.09 113.592C246.298 120.756 246.298 128.28 246.298 135.48C246.298 136.02 246.298 136.596 246.298 137.136Z" fill="#DDA14E"/>
<rect x="0.5" y="0.5" width="314" height="173" rx="4.5" stroke="#9747FF" stroke-dasharray="10 5"/>
</svg>
