<svg width="200" height="300" viewBox="0 0 200 300" fill="none" xmlns="http://www.w3.org/2000/svg">
<rect width="200" height="300" rx="9" fill="#DDA14E"/>
<rect x="9" y="10" width="182" height="280" rx="9" fill="#588157"/>
<path d="M32.36 254.74C32.36 255.388 32.648 255.424 33.26 255.424C35.132 255.424 34.592 250.78 35.492 249.556C36.644 249.196 37.976 249.196 39.2 249.196C39.596 249.196 40.568 249.268 40.568 249.268L41.612 255.208C41.612 255.208 42.08 255.208 42.224 255.208C42.764 255.208 43.7 255.352 43.7 254.632C43.016 249.196 40.46 235.228 39.524 232.348C39.308 231.412 39.236 231.34 38.264 231.34C38.156 231.34 37.616 231.376 37.508 231.376C37.472 231.448 37.22 231.772 37.22 231.88C37.04 232.42 36.536 234.22 36.464 234.436C33.404 252.076 32.36 253.12 32.36 254.74ZM38.192 235.12C38.408 238.648 39.92 244.12 40.316 247.504C38.804 247.756 37.148 247.864 35.708 247.864L38.192 235.12ZM44.7786 235.408C44.7786 236.128 44.7786 238.252 44.7786 238.432C44.8506 243.58 44.9946 255.604 45.0306 255.604L45.5706 255.856C45.6426 255.856 46.7226 255.928 47.0826 255.928C51.8706 255.928 55.3266 253.336 55.3266 248.224C55.3266 245.416 53.9586 244.192 51.9066 242.68C53.6706 241.096 54.8226 239.512 54.8226 237.064C54.8226 234.292 52.5186 231.34 49.6026 231.34C48.5226 231.34 45.3906 231.088 44.7786 232.384C44.7786 232.852 44.7786 234.94 44.7786 235.408ZM47.1546 244.768L47.4066 243.724C47.4066 243.724 47.4786 243.724 47.5146 243.724C50.6466 243.724 52.9866 245.236 52.9866 248.44C52.9866 252.148 51.1146 254.56 47.1546 254.56V244.768ZM47.4066 241.888C47.2266 238.828 47.0826 235.876 47.0826 232.852C49.5666 232.852 52.4466 234.112 52.4466 236.992C52.4466 239.296 50.6826 242.14 48.1626 242.14C47.8746 242.14 47.7306 242.14 47.4066 241.888ZM56.2713 248.224L56.4873 249.232C57.3513 253.084 57.9633 255.856 62.8953 255.856C64.4793 255.856 64.5153 255.1 65.7753 254.02C67.6113 252.4 67.9713 250.132 68.1153 247.684C68.1873 246.352 68.4033 241.96 68.4033 241.348C68.4033 236.956 67.8273 230.548 62.1753 230.548C56.8473 230.548 56.2353 241.168 56.2353 244.66C56.2353 245.164 56.2713 247.684 56.2713 248.224ZM58.3593 244.264C58.3593 243.94 58.5753 241.168 58.6473 240.304C58.7913 238.468 60.2673 232.132 62.6073 232.132C65.8833 232.132 66.0633 238.72 66.0633 240.736C66.0633 244.336 65.9913 248.044 65.2353 251.644C64.2993 252.4 63.5793 254.272 62.0673 254.272C59.8713 254.272 58.7913 250.384 58.6473 248.728C58.5753 247.864 58.3593 244.768 58.3593 244.264ZM69.5252 243.688C69.5252 248.26 69.4532 255.604 75.7532 255.604C78.5252 255.604 80.2892 251.608 80.9012 243.472V242.932C81.0452 240.484 80.9732 237.064 80.9732 234.868C80.9732 234.364 80.9372 232.06 80.9372 231.592C80.9012 231.52 80.5052 231.34 80.4332 231.304H80.2892C79.7132 231.304 78.9212 231.484 78.5612 232.096C78.1292 238.504 78.7052 244.048 77.2292 250.312C76.9772 251.356 76.2212 253.768 74.8532 253.768C72.7652 253.768 72.0092 249.592 71.9372 247.936C71.9372 247.864 71.9012 245.38 71.9012 244.444C71.9012 240.412 72.4412 235.984 72.4412 231.952C72.4412 231.7 72.2612 231.16 72.1892 231.16H70.6052L70.3532 231.7C70.2452 231.88 69.7052 238.432 69.5612 240.808C69.5612 240.952 69.5252 242.968 69.5252 243.688ZM86.3592 255.352C86.7912 256 87.7272 256 88.3752 256C88.3752 254.884 88.5192 248.548 88.5552 247.432C88.6272 243.76 88.9872 233.896 89.0592 233.824L89.3472 233.572C89.4552 233.572 89.5272 233.608 89.6352 233.608C91.1832 233.716 93.6312 233.572 93.5952 232.528V232.492C93.5952 232.312 93.5952 231.736 93.3072 231.664C91.0392 231.376 89.3832 231.376 87.2592 231.376H86.5752C86.0712 231.376 83.7672 231.412 83.2632 231.412C83.2272 231.412 83.1552 231.448 83.1192 231.448C82.5432 231.592 81.8952 231.736 81.8952 232.384C81.8952 232.708 81.9312 233.176 82.4712 233.176H85.8912C86.6472 233.176 86.6832 235.192 86.6832 235.66C86.6832 239.692 86.1432 244.156 86.1432 248.152C86.1432 250.492 86.0712 252.94 86.3592 255.352ZM102.817 244.984C102.817 249.052 102.997 254.236 108.325 255.208C117.361 256.864 114.013 234.832 114.409 232.024C114.337 231.736 114.085 231.736 113.797 231.736C113.761 231.736 113.761 231.736 113.725 231.736C113.113 231.736 112.789 231.844 112.105 232.24C111.673 235.192 113.473 253.408 108.973 253.408C106.237 253.408 105.481 250.24 105.481 248.008V231.808C105.481 231.772 105.049 231.628 104.905 231.556C104.905 231.556 104.797 231.556 104.761 231.556C103.609 231.556 103.465 232.456 103.393 233.356C103.321 234.184 102.889 240.52 102.853 241.312C102.853 241.492 102.817 244.012 102.817 244.984ZM116.617 251.86C116.617 254.2 117.445 255.892 119.929 255.892C123.097 255.892 125.113 254.236 125.113 250.924C125.113 245.632 117.949 241.744 117.949 237.244C117.949 235.732 119.245 232.888 121.117 232.888C123.745 232.888 122.773 236.632 123.853 236.632C124.825 236.632 125.113 236.2 125.113 235.3C125.113 232.528 123.853 231.52 121.117 231.52C117.985 231.52 115.825 234.472 115.825 237.46C115.825 242.752 122.737 246.028 122.737 251.14C122.737 252.832 121.909 254.56 119.929 254.56C118.453 254.56 119.497 250.816 117.589 250.816C116.653 250.816 116.617 250.96 116.617 251.86Z" fill="#BFD29B"/>
<path d="M41.272 126.668C41.308 126.74 41.344 126.848 41.38 126.92C41.38 126.956 41.416 126.992 41.416 127.028C41.74 127.748 41.848 127.964 42.748 127.964C43.108 127.964 43.936 128.072 43.936 127.424C43.936 127.388 43.9 127.208 43.9 127.208C43.72 126.812 43.216 125.192 43.108 124.904C44.908 123.032 45.196 119.9 45.412 117.416C45.484 116.804 45.808 112.088 45.916 110.756C45.916 110.72 45.916 110.432 45.916 110.36C45.916 110.252 45.916 110 45.916 110C45.844 109.388 45.484 106.688 45.412 106.148C44.476 103.988 42.964 103.52 40.732 103.52C34.54 103.52 34.576 111.872 34.576 116.444C34.576 116.66 34.576 116.804 34.576 116.948C34.576 117.308 34.576 117.74 34.576 118.1C34.54 123.356 34.504 127.424 41.272 126.668ZM36.664 117.056C36.664 117.02 36.664 116.948 36.664 116.948C36.7 116.372 36.916 112.016 36.952 111.548C36.988 109.46 38.14 104.564 41.056 104.564C42.352 104.564 43.036 106.868 43.108 107.912C43.144 108.272 43.36 110.9 43.36 111.26C43.324 111.944 42.892 117.488 42.82 118.208C42.82 118.28 42.82 118.352 42.82 118.46C42.784 119.504 42.712 121.268 42.064 122.06L40.804 118.964C40.552 118.316 39.148 118.82 39.004 118.82V119.72L40.552 124.112C40.552 124.112 40.588 124.328 40.588 124.4C40.588 125.048 39.868 125.444 39.22 125.444C37.42 125.444 37.024 122.42 36.952 121.268C36.952 121.196 36.772 118.316 36.664 117.164V117.056ZM47.0213 115.688C47.0213 120.26 46.9493 127.604 53.2493 127.604C56.0213 127.604 57.7853 123.608 58.3973 115.472V114.932C58.5413 112.484 58.4693 109.064 58.4693 106.868C58.4693 106.364 58.4333 104.06 58.4333 103.592C58.3973 103.52 58.0013 103.34 57.9293 103.304H57.7853C57.2093 103.304 56.4173 103.484 56.0573 104.096C55.6253 110.504 56.2013 116.048 54.7253 122.312C54.4733 123.356 53.7173 125.768 52.3493 125.768C50.2613 125.768 49.5053 121.592 49.4333 119.936C49.4333 119.864 49.3973 117.38 49.3973 116.444C49.3973 112.412 49.9373 107.984 49.9373 103.952C49.9373 103.7 49.7573 103.16 49.6853 103.16H48.1013L47.8493 103.7C47.7413 103.88 47.2013 110.432 47.0573 112.808C47.0573 112.952 47.0213 114.968 47.0213 115.688ZM59.7513 126.092C59.7513 127.208 60.3993 127.388 61.5153 127.388C61.5153 127.028 61.5513 125.336 61.5873 124.976C61.5873 124.868 61.8033 124.508 61.8753 124.436C62.3433 118.316 62.6673 112.124 62.6673 105.968C62.6673 105.716 62.6673 104.6 62.6673 104.384C62.4513 103.988 61.8393 103.844 61.4793 103.844C60.0753 103.844 60.5793 106.4 60.5433 107.012C60.5073 107.336 60.2913 109.856 60.2913 110.18C60.2913 110.504 60.2913 113.024 60.2913 113.348C60.1833 117.524 59.7513 121.88 59.7513 126.092ZM64.3266 126.128C64.2186 127.136 64.9746 127.352 65.8026 127.604C66.2706 127.604 67.8546 127.64 68.3226 127.64C69.1506 127.64 71.3466 127.604 71.4906 127.604C72.2106 127.568 73.8666 127.388 73.9026 127.352L74.0106 126.272C71.7786 125.912 69.0786 125.948 66.8826 126.02C73.6866 106.688 74.6226 105.248 74.8386 103.088H64.3266C63.8946 103.088 63.8226 104.816 64.2186 104.924H66.3426C67.2066 104.924 71.0226 104.6 71.8506 104.672L64.3266 126.128Z" fill="#BFD29B"/>
<path d="M34.756 63.172C34.792 63.64 35.692 63.46 35.8 63.46C35.908 63.46 36.412 63.46 36.52 63.46C36.772 60.328 36.88 57.268 37.06 54.172H42.64C43 57.052 42.532 60.328 42.46 63.172C42.532 63.568 43.144 63.46 43.36 63.46C43.756 63.46 44.152 63.532 44.512 63.172C44.584 62.704 44.728 60.544 44.764 60.076C44.8 59.752 44.764 56.872 44.764 56.512C44.872 51.976 45.232 46.612 45.556 42.148C45.556 42.04 45.556 41.14 45.556 40.852C45.556 40.636 45.556 39.736 45.556 39.556C45.52 39.088 44.62 39.268 44.512 39.268C43.684 39.268 43.324 39.34 43.216 40.312L42.64 52.66C42.604 52.66 42.424 52.66 42.388 52.66C42.352 52.66 42.172 52.66 42.172 52.66C40.84 52.588 37.312 52.372 37.312 52.372L37.06 51.868C37.132 51.076 37.276 46.288 37.312 45.46C37.312 45.316 37.312 43.264 37.312 42.508C37.312 42.076 37.312 39.988 37.312 39.556C37.276 39.52 37.132 39.268 37.06 39.268C37.06 39.268 36.988 39.268 36.952 39.268C34.72 39.268 35.044 44.308 35.008 45.712C35.008 46.252 34.756 51.58 34.756 52.12C34.756 52.372 34.72 56.188 34.72 57.664C34.72 58.456 34.756 62.38 34.756 63.172ZM46.8455 56.224L47.0615 57.232C47.9255 61.084 48.5375 63.856 53.4695 63.856C55.0535 63.856 55.0895 63.1 56.3495 62.02C58.1855 60.4 58.5455 58.132 58.6895 55.684C58.7615 54.352 58.9775 49.96 58.9775 49.348C58.9775 44.956 58.4015 38.548 52.7495 38.548C47.4215 38.548 46.8095 49.168 46.8095 52.66C46.8095 53.164 46.8455 55.684 46.8455 56.224ZM48.9335 52.264C48.9335 51.94 49.1495 49.168 49.2215 48.304C49.3655 46.468 50.8415 40.132 53.1815 40.132C56.4575 40.132 56.6375 46.72 56.6375 48.736C56.6375 52.336 56.5655 56.044 55.8095 59.644C54.8735 60.4 54.1535 62.272 52.6415 62.272C50.4455 62.272 49.3655 58.384 49.2215 56.728C49.1495 55.864 48.9335 52.768 48.9335 52.264ZM60.2434 52.12C60.2434 52.984 60.2794 55.252 60.2794 55.432C60.3154 56.62 60.4954 62.164 60.5314 63.352H62.4034V43.12C64.2034 46.864 66.2194 54.136 68.5954 54.388C68.6674 54.388 68.9194 54.352 68.9914 54.352C69.9634 50.464 72.8794 45.748 74.4994 42.112L74.2834 61.408C74.2474 62.884 74.3194 63.352 75.7234 63.352C75.8314 63.352 76.2634 63.352 76.3714 63.352C76.4434 62.848 76.6594 60.436 76.6594 59.896C76.6594 59.644 76.6594 54.64 76.6594 52.732C76.6594 48.268 76.7314 44.488 76.3714 40.132C76.3354 39.736 76.1554 38.548 75.5074 38.548C73.1314 38.548 70.3594 45.928 69.5314 47.764C69.1714 48.556 68.2354 50.392 68.1994 50.392H67.9474C67.6234 49.708 66.1474 46.576 65.8234 45.928C65.7514 45.856 65.3554 45.208 65.2834 45.136C65.2474 45.064 65.2474 44.92 65.2834 44.848C64.6714 43.228 63.6994 39.52 61.4314 39.52C61.2874 39.52 60.8194 39.556 60.8194 39.592L60.5314 40.636C60.5314 40.816 60.3514 46.504 60.2794 48.808C60.2794 48.988 60.2434 51.292 60.2434 52.12ZM78.138 56.656C78.138 57.952 78.174 61.336 78.174 61.48C78.174 62.056 78.354 63.532 78.426 63.604L78.966 64.144H85.554C85.626 64.144 86.13 63.568 86.346 63.352C86.346 63.352 86.382 63.244 86.382 63.208C86.382 63.172 86.346 63.064 86.346 63.064C86.31 62.992 86.13 62.848 86.094 62.812C84.438 62.164 81.81 62.632 80.55 62.632V53.56L80.802 52.264C80.802 52.228 83.394 52.048 84.51 51.976C84.942 51.94 85.842 52.156 85.842 51.328C85.842 51.292 85.806 51.184 85.806 51.184C85.734 51.004 85.338 50.536 85.302 50.536H80.802V41.716L81.054 41.428C81.774 41.392 84.906 41.248 85.554 41.176C85.626 41.176 87.138 41.14 87.138 40.528C87.138 39.916 86.67 39.592 86.094 39.592C85.734 39.592 84.15 39.556 83.826 39.556C82.962 39.556 79.29 39.16 78.678 40.384C78.21 45.784 78.138 51.22 78.138 56.656Z" fill="#BFD29B"/>
<path d="M38.356 174.608V196.496C38.392 196.496 38.428 196.496 38.5 196.496C38.536 196.496 38.608 196.496 38.68 196.496C38.716 196.496 38.752 196.496 38.788 196.496C39.4 196.496 40.156 196.496 40.408 195.956C40.408 195.488 40.408 193.328 40.408 192.824C40.48 187.46 40.66 174.86 40.66 174.86L41.2 174.608H44.26C44.656 174.608 44.548 173.78 44.548 173.708C44.548 171.728 42.892 173.528 42.748 172.556C42.388 172.556 40.768 172.52 40.408 172.52C39.22 172.52 34.36 171.98 34.36 173.96C34.36 173.996 34.36 174.068 34.36 174.068C34.432 174.248 34.612 174.608 34.648 174.608H38.356ZM45.5096 184.688C45.5096 189.26 45.4376 196.604 51.7376 196.604C54.5096 196.604 56.2736 192.608 56.8856 184.472V183.932C57.0296 181.484 56.9576 178.064 56.9576 175.868C56.9576 175.364 56.9216 173.06 56.9216 172.592C56.8856 172.52 56.4896 172.34 56.4176 172.304H56.2736C55.6976 172.304 54.9056 172.484 54.5456 173.096C54.1136 179.504 54.6896 185.048 53.2136 191.312C52.9616 192.356 52.2056 194.768 50.8376 194.768C48.7496 194.768 47.9936 190.592 47.9216 188.936C47.9216 188.864 47.8856 186.38 47.8856 185.444C47.8856 181.412 48.4256 176.984 48.4256 172.952C48.4256 172.7 48.2456 172.16 48.1736 172.16H46.5896L46.3376 172.7C46.2296 172.88 45.6896 179.432 45.5456 181.808C45.5456 181.952 45.5096 183.968 45.5096 184.688ZM62.3435 196.352C62.7755 197 63.7115 197 64.3595 197C64.3595 195.884 64.5035 189.548 64.5395 188.432C64.6115 184.76 64.9715 174.896 65.0435 174.824L65.3315 174.572C65.4395 174.572 65.5115 174.608 65.6195 174.608C67.1675 174.716 69.6155 174.572 69.5795 173.528V173.492C69.5795 173.312 69.5795 172.736 69.2915 172.664C67.0235 172.376 65.3675 172.376 63.2435 172.376H62.5595C62.0555 172.376 59.7515 172.412 59.2475 172.412C59.2115 172.412 59.1395 172.448 59.1035 172.448C58.5275 172.592 57.8795 172.736 57.8795 173.384C57.8795 173.708 57.9155 174.176 58.4555 174.176H61.8755C62.6315 174.176 62.6675 176.192 62.6675 176.66C62.6675 180.692 62.1275 185.156 62.1275 189.152C62.1275 191.492 62.0555 193.94 62.3435 196.352ZM68.5721 189.224L68.7881 190.232C69.6521 194.084 70.2641 196.856 75.1961 196.856C76.7801 196.856 76.8161 196.1 78.0761 195.02C79.9121 193.4 80.2721 191.132 80.4161 188.684C80.4881 187.352 80.7041 182.96 80.7041 182.348C80.7041 177.956 80.1281 171.548 74.4761 171.548C69.1481 171.548 68.5361 182.168 68.5361 185.66C68.5361 186.164 68.5721 188.684 68.5721 189.224ZM70.6601 185.264C70.6601 184.94 70.8761 182.168 70.9481 181.304C71.0921 179.468 72.5681 173.132 74.9081 173.132C78.1841 173.132 78.3641 179.72 78.3641 181.736C78.3641 185.336 78.2921 189.044 77.5361 192.644C76.6001 193.4 75.8801 195.272 74.3681 195.272C72.1721 195.272 71.0921 191.384 70.9481 189.728C70.8761 188.864 70.6601 185.768 70.6601 185.264ZM82.006 196.352L83.05 196.604H83.194C83.77 196.604 83.842 195.488 83.842 195.272L84.382 186.56C91.546 187.028 89.314 196.352 90.862 196.352C91.294 196.352 92.086 196.316 92.302 195.812C92.302 195.596 92.338 194.552 92.338 194.372C92.338 190.988 91.474 186.74 87.802 185.516C88.018 185.12 88.522 185.156 88.882 184.976C91.33 183.752 92.842 181.088 92.842 178.388C92.842 174.248 90.07 171.764 85.966 171.764H85.714C84.31 171.764 82.33 171.728 82.258 173.636C82.222 174.608 82.006 182.168 82.006 183.14C82.006 183.428 81.97 188.072 81.97 189.728C81.97 190.736 82.006 195.344 82.006 196.352ZM86.218 173.132C89.026 173.312 90.502 175.544 90.502 178.136C90.502 181.844 88.054 184.148 84.382 184.724V173.384C84.382 173.276 85.678 173.06 86.218 173.132ZM93.9231 195.092C93.9231 196.208 94.5711 196.388 95.6871 196.388C95.6871 196.028 95.7231 194.336 95.7591 193.976C95.7591 193.868 95.9751 193.508 96.0471 193.436C96.5151 187.316 96.8391 181.124 96.8391 174.968C96.8391 174.716 96.8391 173.6 96.8391 173.384C96.6231 172.988 96.0111 172.844 95.6511 172.844C94.2471 172.844 94.7511 175.4 94.7151 176.012C94.6791 176.336 94.4631 178.856 94.4631 179.18C94.4631 179.504 94.4631 182.024 94.4631 182.348C94.3551 186.524 93.9231 190.88 93.9231 195.092ZM97.9585 197.144C98.3905 197.324 98.6425 197.432 99.0385 197.432C100.227 197.432 100.191 194.876 100.335 194.228C100.407 193.868 100.803 192.176 100.839 191.852C102.062 191.204 103.683 191.312 105.015 191.312C105.663 191.312 105.555 191.888 105.591 192.392C105.699 193.076 106.275 196.208 106.383 196.856C106.995 197.072 107.319 197.144 107.895 197.144C108.363 197.144 108.543 197 108.543 196.496C107.463 190.664 107.103 184.76 105.879 178.64C105.555 176.948 105.555 172.556 102.711 172.556C101.703 172.16 100.371 181.844 99.5425 184.472C99.5425 184.544 99.5425 184.652 99.5425 184.724C99.4705 185.048 99.0745 187.568 99.0025 187.892C98.6425 190.448 97.9225 193.22 97.9225 195.812C97.9225 195.992 97.9585 196.928 97.9585 197.144ZM103.107 175.832L105.087 189.476V189.656C103.683 189.656 102.423 190.052 101.055 190.052L103.107 175.832ZM109.638 190.088C109.638 191.708 109.71 196.064 109.71 196.352L109.962 196.856H114.966C115.038 196.856 115.218 196.676 115.254 196.604C115.254 196.388 115.326 195.596 115.326 195.416H111.834C111.834 188.756 112.086 182.168 112.086 175.508C112.086 175.112 112.086 173.456 112.086 173.132C112.302 172.268 111.294 172.052 110.754 172.052C110.106 172.052 109.926 172.916 109.962 173.384C109.638 178.892 109.638 184.616 109.638 190.088Z" fill="#BFD29B"/>
</svg>
