<svg width="173" height="170" viewBox="0 0 173 170" fill="none" xmlns="http://www.w3.org/2000/svg">
<rect x="20" y="20" width="133" height="52" rx="10" fill="#588157"/>
<path d="M53.704 57.688C53.704 58.328 54.12 58.872 54.952 58.872C55.784 58.872 55.784 55 55.784 53.72C55.784 53.656 55.784 53.592 55.784 53.528C55.784 53.432 55.784 53.368 55.784 53.336C55.784 51.704 55.464 41.4 55.528 39.8C56.744 44.888 58.888 51.512 60.328 56.312C60.584 57.144 60.584 58.616 61.704 58.616C62.472 58.616 62.888 58.392 62.856 57.464C63.272 51.128 63.496 43.864 63.496 37.56C63.496 37.176 63.496 37.016 63.272 36.6C63.208 36.6 62.696 36.568 62.6 36.568C62.216 36.568 61.736 36.504 61.448 36.824C60.872 41.336 61.992 49.08 61.32 53.944C60.968 52.632 58.632 44.088 58.248 42.744C58.248 42.712 58.216 42.648 58.216 42.616C58.184 42.488 58.12 42.36 58.088 42.232C58.056 42.168 58.056 42.104 58.024 42.04C57.608 40.696 57.064 38.936 56.424 37.944C55.976 37.304 55.144 37.016 54.376 37.016C54.152 37.016 53.992 37.016 53.896 37.272C53.48 43.768 53.704 51.128 53.704 57.688ZM64.765 52.472C64.765 53.624 64.797 56.632 64.797 56.76C64.797 57.272 64.957 58.584 65.021 58.648L65.501 59.128H71.357C71.421 59.128 71.869 58.616 72.061 58.424C72.061 58.424 72.093 58.328 72.093 58.296C72.093 58.264 72.061 58.168 72.061 58.168C72.029 58.104 71.869 57.976 71.837 57.944C70.365 57.368 68.029 57.784 66.909 57.784V49.72L67.133 48.568C67.133 48.536 69.437 48.376 70.429 48.312C70.813 48.28 71.613 48.472 71.613 47.736C71.613 47.704 71.581 47.608 71.581 47.608C71.517 47.448 71.165 47.032 71.133 47.032H67.133V39.192L67.357 38.936C67.997 38.904 70.781 38.776 71.357 38.712C71.421 38.712 72.765 38.68 72.765 38.136C72.765 37.592 72.349 37.304 71.837 37.304C71.517 37.304 70.109 37.272 69.821 37.272C69.053 37.272 65.789 36.92 65.245 38.008C64.829 42.808 64.765 47.64 64.765 52.472ZM72.852 58.2C72.724 58.552 73.108 58.68 73.46 58.68C73.172 59.16 75.86 57.016 77.652 50.936L79.444 57.944C79.604 58.616 79.86 58.68 80.5 58.68C80.98 58.68 81.844 58.584 81.844 57.944C81.844 57.88 81.812 57.72 81.812 57.72C79.54 51.192 79.188 49.688 79.188 48.664L82.74 37.784C82.74 37.752 82.772 37.592 82.772 37.528C82.772 36.824 81.652 36.568 81.076 36.568H80.98C80.628 36.6 80.5 36.792 80.404 37.08C80.404 37.08 80.148 39.192 77.78 46.2C77.556 46.872 76.308 39.544 75.924 38.232C75.86 37.944 75.572 37.08 74.996 37.08C74.516 37.08 73.812 37.176 73.812 37.784V38.008L76.404 48.568C76.404 48.6 76.436 48.728 76.436 48.792C76.436 48.984 76.468 50.2 74.356 55C73.78 56.312 73.236 57.208 72.852 58.2ZM87.3818 58.424C87.7658 59 88.5978 59 89.1738 59C89.1738 58.008 89.3018 52.376 89.3338 51.384C89.3978 48.12 89.7178 39.352 89.7818 39.288L90.0378 39.064C90.1338 39.064 90.1978 39.096 90.2938 39.096C91.6698 39.192 93.8458 39.064 93.8138 38.136V38.104C93.8138 37.944 93.8138 37.432 93.5578 37.368C91.5417 37.112 90.0698 37.112 88.1818 37.112H87.5738C87.1258 37.112 85.0778 37.144 84.6298 37.144C84.5978 37.144 84.5338 37.176 84.5018 37.176C83.9898 37.304 83.4138 37.432 83.4138 38.008C83.4138 38.296 83.4458 38.712 83.9258 38.712H86.9658C87.6378 38.712 87.6698 40.504 87.6698 40.92C87.6698 44.504 87.1898 48.472 87.1898 52.024C87.1898 54.104 87.1258 56.28 87.3818 58.424ZM103.131 52.792L115.195 47.768L103.131 42.04V39.544L118.203 47.064V48.664L103.131 55.288V52.792Z" fill="white"/>
<rect x="20" y="92" width="133" height="52" rx="10" fill="#3A5A40"/>
<path d="M53.704 129.688C53.704 130.328 54.12 130.872 54.952 130.872C55.784 130.872 55.784 127 55.784 125.72C55.784 125.656 55.784 125.592 55.784 125.528C55.784 125.432 55.784 125.368 55.784 125.336C55.784 123.704 55.464 113.4 55.528 111.8C56.744 116.888 58.888 123.512 60.328 128.312C60.584 129.144 60.584 130.616 61.704 130.616C62.472 130.616 62.888 130.392 62.856 129.464C63.272 123.128 63.496 115.864 63.496 109.56C63.496 109.176 63.496 109.016 63.272 108.6C63.208 108.6 62.696 108.568 62.6 108.568C62.216 108.568 61.736 108.504 61.448 108.824C60.872 113.336 61.992 121.08 61.32 125.944C60.968 124.632 58.632 116.088 58.248 114.744C58.248 114.712 58.216 114.648 58.216 114.616C58.184 114.488 58.12 114.36 58.088 114.232C58.056 114.168 58.056 114.104 58.024 114.04C57.608 112.696 57.064 110.936 56.424 109.944C55.976 109.304 55.144 109.016 54.376 109.016C54.152 109.016 53.992 109.016 53.896 109.272C53.48 115.768 53.704 123.128 53.704 129.688ZM64.765 124.472C64.765 125.624 64.797 128.632 64.797 128.76C64.797 129.272 64.957 130.584 65.021 130.648L65.501 131.128H71.357C71.421 131.128 71.869 130.616 72.061 130.424C72.061 130.424 72.093 130.328 72.093 130.296C72.093 130.264 72.061 130.168 72.061 130.168C72.029 130.104 71.869 129.976 71.837 129.944C70.365 129.368 68.029 129.784 66.909 129.784V121.72L67.133 120.568C67.133 120.536 69.437 120.376 70.429 120.312C70.813 120.28 71.613 120.472 71.613 119.736C71.613 119.704 71.581 119.608 71.581 119.608C71.517 119.448 71.165 119.032 71.133 119.032H67.133V111.192L67.357 110.936C67.997 110.904 70.781 110.776 71.357 110.712C71.421 110.712 72.765 110.68 72.765 110.136C72.765 109.592 72.349 109.304 71.837 109.304C71.517 109.304 70.109 109.272 69.821 109.272C69.053 109.272 65.789 108.92 65.245 110.008C64.829 114.808 64.765 119.64 64.765 124.472ZM72.852 130.2C72.724 130.552 73.108 130.68 73.46 130.68C73.172 131.16 75.86 129.016 77.652 122.936L79.444 129.944C79.604 130.616 79.86 130.68 80.5 130.68C80.98 130.68 81.844 130.584 81.844 129.944C81.844 129.88 81.812 129.72 81.812 129.72C79.54 123.192 79.188 121.688 79.188 120.664L82.74 109.784C82.74 109.752 82.772 109.592 82.772 109.528C82.772 108.824 81.652 108.568 81.076 108.568H80.98C80.628 108.6 80.5 108.792 80.404 109.08C80.404 109.08 80.148 111.192 77.78 118.2C77.556 118.872 76.308 111.544 75.924 110.232C75.86 109.944 75.572 109.08 74.996 109.08C74.516 109.08 73.812 109.176 73.812 109.784V110.008L76.404 120.568C76.404 120.6 76.436 120.728 76.436 120.792C76.436 120.984 76.468 122.2 74.356 127C73.78 128.312 73.236 129.208 72.852 130.2ZM87.3818 130.424C87.7658 131 88.5978 131 89.1738 131C89.1738 130.008 89.3018 124.376 89.3338 123.384C89.3978 120.12 89.7178 111.352 89.7818 111.288L90.0378 111.064C90.1338 111.064 90.1978 111.096 90.2938 111.096C91.6698 111.192 93.8458 111.064 93.8138 110.136V110.104C93.8138 109.944 93.8138 109.432 93.5578 109.368C91.5417 109.112 90.0698 109.112 88.1818 109.112H87.5738C87.1258 109.112 85.0778 109.144 84.6298 109.144C84.5978 109.144 84.5338 109.176 84.5018 109.176C83.9898 109.304 83.4138 109.432 83.4138 110.008C83.4138 110.296 83.4458 110.712 83.9258 110.712H86.9658C87.6378 110.712 87.6698 112.504 87.6698 112.92C87.6698 116.504 87.1898 120.472 87.1898 124.024C87.1898 126.104 87.1258 128.28 87.3818 130.424ZM103.131 124.792L115.195 119.768L103.131 114.04V111.544L118.203 119.064V120.664L103.131 127.288V124.792Z" fill="white"/>
<rect x="0.5" y="0.5" width="172" height="169" rx="4.5" stroke="#9747FF" stroke-dasharray="10 5"/>
</svg>
