<svg width="275" height="57" viewBox="0 0 275 57" fill="none" xmlns="http://www.w3.org/2000/svg">
<rect width="275" height="57" rx="10" fill="#588157"/>
<path d="M85.572 16.52C85.212 16.52 84.204 16.556 84.096 16.556C83.628 16.592 82.368 16.736 82.332 16.808L82.08 17.6C82.08 17.636 81.864 32.9 81.756 39.164C81.756 39.344 81.72 40.244 81.72 40.424H83.52L83.808 40.208C83.844 40.136 83.988 37.472 84.024 36.32C84.024 36.212 83.844 34.412 83.844 34.268C83.88 33.728 84.096 31.244 84.096 30.704C88.596 29.66 91.332 27.284 91.332 22.46C91.332 18.356 89.496 16.52 85.572 16.52ZM85.824 17.816C88.02 17.816 89.028 20.732 89.028 22.46C89.028 25.736 87.408 28.364 84.096 29.156V18.068C84.096 17.852 85.644 17.816 85.824 17.816ZM92.4075 33.656C92.4075 34.952 92.4435 38.336 92.4435 38.48C92.4435 39.056 92.6235 40.532 92.6955 40.604L93.2355 41.144H99.8235C99.8955 41.144 100.4 40.568 100.616 40.352C100.616 40.352 100.652 40.244 100.652 40.208C100.652 40.172 100.616 40.064 100.616 40.064C100.58 39.992 100.4 39.848 100.364 39.812C98.7075 39.164 96.0795 39.632 94.8195 39.632V30.56L95.0715 29.264C95.0715 29.228 97.6635 29.048 98.7795 28.976C99.2115 28.94 100.112 29.156 100.112 28.328C100.112 28.292 100.076 28.184 100.076 28.184C100.004 28.004 99.6075 27.536 99.5715 27.536H95.0715V18.716L95.3235 18.428C96.0435 18.392 99.1755 18.248 99.8235 18.176C99.8955 18.176 101.408 18.14 101.408 17.528C101.408 16.916 100.939 16.592 100.364 16.592C100.004 16.592 98.4195 16.556 98.0955 16.556C97.2315 16.556 93.5595 16.16 92.9475 17.384C92.4795 22.784 92.4075 28.22 92.4075 33.656ZM102.406 36.86C102.406 39.2 103.234 40.892 105.718 40.892C108.886 40.892 110.902 39.236 110.902 35.924C110.902 30.632 103.738 26.744 103.738 22.244C103.738 20.732 105.034 17.888 106.906 17.888C109.534 17.888 108.562 21.632 109.642 21.632C110.614 21.632 110.902 21.2 110.902 20.3C110.902 17.528 109.642 16.52 106.906 16.52C103.774 16.52 101.614 19.472 101.614 22.46C101.614 27.752 108.526 31.028 108.526 36.14C108.526 37.832 107.698 39.56 105.718 39.56C104.242 39.56 105.286 35.816 103.378 35.816C102.442 35.816 102.406 35.96 102.406 36.86ZM111.985 28.58C111.985 29.732 112.021 32.792 112.021 32.936C112.093 35.276 112.885 41.144 116.233 41.144C120.085 41.144 122.065 37.652 122.065 34.088C122.065 34.052 122.065 34.016 122.065 34.016C121.921 33.692 121.417 33.476 121.129 33.476C117.925 33.476 120.013 39.344 116.989 39.344C115.153 39.344 114.685 36.068 114.469 34.448C114.433 34.268 114.433 34.16 114.397 34.016C114.325 33.44 114.145 31.424 114.145 31.1C114.145 30.992 114.109 29.12 114.109 28.436C114.109 28.328 114.109 28.256 114.109 28.148C114.109 25.484 114.109 21.344 115.981 19.22C116.737 18.356 117.385 17.384 118.609 17.384C118.681 17.384 118.861 17.384 118.897 17.384C120.049 19.04 119.905 19.832 120.193 21.848C120.265 22.244 120.445 23.18 120.481 23.18H122.065C122.353 23.18 122.353 21.2 122.353 20.948C122.353 18.032 120.913 15.8 117.817 15.8C113.929 15.8 112.273 21.344 112.021 24.224C112.021 24.908 111.985 27.932 111.985 28.58ZM123.302 41.144C123.734 41.324 123.986 41.432 124.382 41.432C125.57 41.432 125.534 38.876 125.678 38.228C125.75 37.868 126.146 36.176 126.182 35.852C127.406 35.204 129.026 35.312 130.358 35.312C131.006 35.312 130.898 35.888 130.934 36.392C131.042 37.076 131.618 40.208 131.726 40.856C132.338 41.072 132.662 41.144 133.238 41.144C133.706 41.144 133.886 41 133.886 40.496C132.806 34.664 132.446 28.76 131.222 22.64C130.898 20.948 130.898 16.556 128.054 16.556C127.046 16.16 125.714 25.844 124.886 28.472C124.886 28.544 124.886 28.652 124.886 28.724C124.814 29.048 124.418 31.568 124.346 31.892C123.986 34.448 123.266 37.22 123.266 39.812C123.266 39.992 123.302 40.928 123.302 41.144ZM128.45 19.832L130.43 33.476V33.656C129.026 33.656 127.766 34.052 126.398 34.052L128.45 19.832ZM136.871 40.352C137.303 41 138.239 41 138.887 41C138.887 39.884 139.031 33.548 139.067 32.432C139.139 28.76 139.499 18.896 139.571 18.824L139.859 18.572C139.967 18.572 140.039 18.608 140.147 18.608C141.695 18.716 144.143 18.572 144.107 17.528V17.492C144.107 17.312 144.107 16.736 143.819 16.664C141.551 16.376 139.895 16.376 137.771 16.376H137.087C136.583 16.376 134.279 16.412 133.775 16.412C133.739 16.412 133.667 16.448 133.631 16.448C133.055 16.592 132.407 16.736 132.407 17.384C132.407 17.708 132.443 18.176 132.983 18.176H136.403C137.159 18.176 137.195 20.192 137.195 20.66C137.195 24.692 136.655 29.156 136.655 33.152C136.655 35.492 136.583 37.94 136.871 40.352ZM141.794 41.144C142.226 41.324 142.478 41.432 142.874 41.432C144.062 41.432 144.026 38.876 144.17 38.228C144.242 37.868 144.638 36.176 144.674 35.852C145.898 35.204 147.518 35.312 148.85 35.312C149.498 35.312 149.39 35.888 149.426 36.392C149.534 37.076 150.11 40.208 150.218 40.856C150.83 41.072 151.154 41.144 151.73 41.144C152.198 41.144 152.378 41 152.378 40.496C151.298 34.664 150.938 28.76 149.714 22.64C149.39 20.948 149.39 16.556 146.546 16.556C145.538 16.16 144.206 25.844 143.378 28.472C143.378 28.544 143.378 28.652 143.378 28.724C143.306 29.048 142.91 31.568 142.838 31.892C142.478 34.448 141.758 37.22 141.758 39.812C141.758 39.992 141.794 40.928 141.794 41.144ZM146.942 19.832L148.922 33.476V33.656C147.518 33.656 146.258 34.052 144.89 34.052L146.942 19.832ZM153.51 40.352L154.554 40.604H154.698C155.274 40.604 155.346 39.488 155.346 39.272L155.886 30.56C163.05 31.028 160.818 40.352 162.366 40.352C162.798 40.352 163.59 40.316 163.806 39.812C163.806 39.596 163.842 38.552 163.842 38.372C163.842 34.988 162.978 30.74 159.306 29.516C159.522 29.12 160.026 29.156 160.386 28.976C162.834 27.752 164.346 25.088 164.346 22.388C164.346 18.248 161.574 15.764 157.47 15.764H157.218C155.814 15.764 153.834 15.728 153.762 17.636C153.726 18.608 153.51 26.168 153.51 27.14C153.51 27.428 153.474 32.072 153.474 33.728C153.474 34.736 153.51 39.344 153.51 40.352ZM157.722 17.132C160.53 17.312 162.006 19.544 162.006 22.136C162.006 25.844 159.558 28.148 155.886 28.724V17.384C155.886 17.276 157.182 17.06 157.722 17.132ZM165.427 39.092C165.427 40.208 166.075 40.388 167.191 40.388C167.191 40.028 167.227 38.336 167.263 37.976C167.263 37.868 167.479 37.508 167.551 37.436C168.019 31.316 168.343 25.124 168.343 18.968C168.343 18.716 168.343 17.6 168.343 17.384C168.127 16.988 167.515 16.844 167.155 16.844C165.751 16.844 166.255 19.4 166.219 20.012C166.183 20.336 165.967 22.856 165.967 23.18C165.967 23.504 165.967 26.024 165.967 26.348C165.859 30.524 165.427 34.88 165.427 39.092ZM169.462 41.144C169.894 41.324 170.146 41.432 170.542 41.432C171.73 41.432 171.694 38.876 171.838 38.228C171.91 37.868 172.306 36.176 172.342 35.852C173.566 35.204 175.186 35.312 176.518 35.312C177.166 35.312 177.058 35.888 177.094 36.392C177.202 37.076 177.778 40.208 177.886 40.856C178.498 41.072 178.822 41.144 179.398 41.144C179.866 41.144 180.046 41 180.046 40.496C178.966 34.664 178.606 28.76 177.382 22.64C177.058 20.948 177.058 16.556 174.214 16.556C173.206 16.16 171.874 25.844 171.046 28.472C171.046 28.544 171.046 28.652 171.046 28.724C170.974 29.048 170.578 31.568 170.506 31.892C170.146 34.448 169.426 37.22 169.426 39.812C169.426 39.992 169.462 40.928 169.462 41.144ZM174.61 19.832L176.59 33.476V33.656C175.186 33.656 173.926 34.052 172.558 34.052L174.61 19.832ZM181.142 40.064C181.322 40.64 181.862 40.64 182.33 40.64C182.402 40.64 182.87 40.568 182.978 40.568C183.95 35.384 183.266 25.952 183.59 20.84C185.39 24.152 189.206 39.632 191.222 39.848C191.294 39.848 192.266 39.992 192.338 39.56C192.95 32.828 192.626 25.988 192.842 17.132C192.59 16.592 191.762 16.556 191.258 16.556C191.222 16.556 190.826 16.592 190.754 16.592C190.466 18.752 190.61 31.856 190.646 35.24L185.21 19.508C184.886 19.04 184.598 16.592 183.878 16.592H182.042C182.006 16.592 181.826 17.888 181.79 18.428C181.142 24.872 181.142 32.18 181.142 38.588V40.064Z" fill="white"/>
<circle cx="250.5" cy="26.5" r="10.75" stroke="white" stroke-width="1.5"/>
<path d="M249.568 33.128C249.448 33.128 249.064 33.152 249.064 33.296V34.472C249.064 34.664 249.28 34.688 249.4 34.664C249.52 34.64 250.6 34.64 250.6 33.896C250.6 33.824 250.576 33.536 250.576 33.464C250.288 33.296 249.928 33.128 249.568 33.128ZM248.992 29.552C248.992 29.96 248.92 30.512 249.184 30.896C250.36 31.352 250.696 29.432 250.888 28.208C250.912 28.04 251.152 27.104 251.224 26.864C251.752 25.088 253.6 23.48 253.6 21.632C253.6 19.376 252.04 18.752 250.096 18.752C248.8 18.752 247.48 19.448 247.48 20.936C247.48 20.984 247.48 21.008 247.48 21.056C247.48 21.44 247.552 21.416 247.912 21.632C248.44 21.944 248.728 19.736 250.792 20.096C251.536 20.216 251.896 21.104 251.896 21.632C251.896 22.832 250.888 23.672 250.36 24.656C249.568 26.12 248.992 27.896 248.992 29.552Z" fill="white"/>
</svg>
